<?xml version="1.0" encoding="utf-8"?>
<!-- Generator: Adobe Illustrator 21.0.0, SVG Export Plug-In . SVG Version: 6.00 Build 0)  -->
<svg version="1.1" id="图层_1" xmlns="http://www.w3.org/2000/svg" xmlns:xlink="http://www.w3.org/1999/xlink" x="0px" y="0px"
	 viewBox="0 0 847 641" style="enable-background:new 0 0 847 641;" xml:space="preserve">
<style type="text/css">
	.st0{fill:#D5E3F4;}
	.st1{fill:#43576D;}
	.st2{fill:#91A7C3;}
	.st3{fill:#FFFFFE;}
	.st4{fill:#EBF1F9;}
	.st5{fill:url(#SVGID_1_);}
	.st6{display:none;fill:url(#SVGID_2_);}
	.st7{fill:url(#SVGID_3_);}
	.st8{display:none;fill:#D5E3F4;}
	.st9{fill:#EEF3FA;}
	.st10{fill:#C6E0FD;}
	.st11{fill:#F4F6F9;}
	.st12{opacity:0.5;fill:#C6E0FD;enable-background:new    ;}
	.st13{fill:#6A9ED8;}
	.st14{fill:#262755;}
	.st15{fill:#FFFFFF;}
	.st16{fill:#2B92D3;}
	.st17{display:none;opacity:0.9;}
	.st18{display:inline;filter:url(#e);}
	.st19{display:inline;}
	.st20{display:inline;fill:none;stroke:#F3F4F6;stroke-width:1.2;}
	.st21{opacity:0.2;fill:none;stroke:#232425;stroke-width:1.2;stroke-linecap:square;enable-background:new    ;}
	.st22{display:none;fill:#68D75A;}
	.st23{display:none;opacity:0.3;fill:#3FBBE8;enable-background:new    ;}
	.st24{display:none;opacity:0.1;fill:#3FBBE8;enable-background:new    ;}
	.st25{display:none;fill:#3FBBE8;}
	.st26{display:none;}
	.st27{display:inline;opacity:0.9;}
	.st28{filter:url(#h);}
	.st29{fill:none;stroke:#F3F4F6;stroke-width:1.2;}
	.st30{display:inline;fill:#D8D8D8;}
	.st31{display:inline;opacity:0.3;fill:none;stroke:#C6E0FD;stroke-width:1.2;stroke-linecap:square;enable-background:new    ;}
	
		.st32{display:inline;opacity:0.67;fill:none;stroke:url(#SVGID_4_);stroke-width:2.4;stroke-linecap:round;stroke-linejoin:round;enable-background:new    ;}
	.st33{display:inline;fill:#68D75A;}
	.st34{display:none;fill:#E1F7FC;}
	.st35{display:none;fill:#2FA2DD;}
	.st36{fill:#6CB4F4;}
	.st37{display:none;fill:#43576D;}
	.st38{display:none;fill:#91A7C3;}
	.st39{display:none;fill:#FFFFFE;}
	.st40{display:none;fill:#EBF1F9;}
	.st41{display:none;fill:url(#SVGID_5_);}
	.st42{display:none;fill:url(#SVGID_6_);}
	.st43{display:none;fill:url(#SVGID_7_);}
	.st44{display:inline;fill:#EEF3FA;}
	.st45{display:inline;fill:#C6E0FD;}
	.st46{display:inline;fill:#F4F6F9;}
	.st47{display:inline;opacity:0.5;fill:#C6E0FD;enable-background:new    ;}
	.st48{display:inline;fill:#6A9ED8;}
	.st49{display:inline;fill:#262755;}
	.st50{display:inline;fill:#FFFFFF;}
	.st51{display:inline;fill:url(#SVGID_8_);}
	.st52{display:inline;fill:#2B92D3;}
	.st53{filter:url(#e);}
	.st54{display:inline;opacity:0.2;fill:none;stroke:#232425;stroke-width:1.2;stroke-linecap:square;enable-background:new    ;}
	.st55{display:inline;fill:url(#SVGID_9_);}
	.st56{display:inline;fill:url(#SVGID_10_);}
	.st57{display:inline;fill:#A8E7F8;}
	.st58{display:inline;fill:none;stroke:#D3D3D3;stroke-width:1.2;stroke-linecap:square;}
	.st59{display:inline;opacity:0.3;fill:#3FBBE8;enable-background:new    ;}
	.st60{display:inline;opacity:0.1;fill:#3FBBE8;enable-background:new    ;}
	.st61{display:inline;fill:#3FBBE8;}
	.st62{opacity:0.9;}
	.st63{fill:#D8D8D8;}
	.st64{opacity:0.3;fill:none;stroke:#C6E0FD;stroke-width:1.2;stroke-linecap:square;enable-background:new    ;}
	
		.st65{opacity:0.67;fill:none;stroke:url(#SVGID_11_);stroke-width:2.4;stroke-linecap:round;stroke-linejoin:round;enable-background:new    ;}
	.st66{fill:#68D75A;}
	.st67{filter:url(#k);}
	.st68{display:inline;fill:#E1F7FC;}
	.st69{display:inline;fill:#2FA2DD;}
	.st70{display:inline;fill:#EEF3FC;}
	.st71{display:inline;fill:#E4F0FE;}
	.st72{display:inline;fill:url(#SVGID_12_);}
	.st73{display:inline;fill:url(#SVGID_13_);}
	.st74{display:inline;fill:#319DDC;}
	.st75{display:inline;fill:url(#SVGID_14_);}
	.st76{display:inline;fill:url(#SVGID_15_);}
	.st77{display:inline;opacity:0.9;fill:#68D75A;enable-background:new    ;}
	.st78{display:inline;fill:url(#SVGID_16_);}
	.st79{display:inline;opacity:0.9;fill:#97ED8C;enable-background:new    ;}
	.st80{fill:#EEF3FC;}
	.st81{fill:#E4F0FE;}
	.st82{fill:url(#SVGID_17_);}
	.st83{fill:url(#SVGID_18_);}
	.st84{fill:#319DDC;}
	.st85{fill:url(#SVGID_19_);}
	.st86{fill:url(#SVGID_20_);}
	.st87{opacity:0.9;fill:#68D75A;enable-background:new    ;}
	.st88{fill:url(#SVGID_21_);}
	.st89{opacity:0.9;fill:#97ED8C;enable-background:new    ;}
	.st90{fill:url(#SVGID_22_);}
	.st91{fill:url(#SVGID_23_);}
	.st92{fill:url(#SVGID_24_);}
	.st93{fill:url(#SVGID_25_);}
	.st94{display:none;fill:#C6E0FD;}
	.st95{display:none;fill:#FFFFFF;}
	.st96{fill:url(#SVGID_26_);}
	.st97{fill:url(#SVGID_27_);}
	.st98{fill:#F7FBFF;}
	.st99{display:inline;opacity:0.85;}
	.st100{display:inline;fill:url(#SVGID_28_);}
	.st101{display:inline;fill:none;stroke:#68D75A;stroke-width:1.56;stroke-linecap:round;stroke-linejoin:round;}
	.st102{display:inline;fill:url(#SVGID_29_);}
	.st103{display:inline;opacity:0.5;fill:url(#SVGID_30_);enable-background:new    ;}
	.st104{display:inline;fill:none;stroke:#D0E2EF;stroke-width:1.404;stroke-linecap:round;}
	.st105{display:inline;fill:#C0E8FB;}
</style>
<filter  filterUnits="objectBoundingBox" height="118.8%" id="k" width="145.3%" x="-22.7%" y="-8%">
	<feOffset  dy="2" in="SourceAlpha" result="shadowOffsetOuter1"></feOffset>
	<feGaussianBlur  in="shadowOffsetOuter1" result="shadowBlurOuter1" stdDeviation="4"></feGaussianBlur>
	<feComposite  in="shadowBlurOuter1" in2="SourceAlpha" operator="out" result="shadowBlurOuter1"></feComposite>
	<feColorMatrix  in="shadowBlurOuter1" values="0 0 0 0 0.862745098 0 0 0 0 0.917647059 0 0 0 0 0.984313725 0 0 0 1 0">
		</feColorMatrix>
</filter>
<filter  filterUnits="objectBoundingBox" height="132%" id="h" width="134.8%" x="-17.4%" y="-14.9%">
	<feOffset  dy="2" in="SourceAlpha" result="shadowOffsetOuter1"></feOffset>
	<feGaussianBlur  in="shadowOffsetOuter1" result="shadowBlurOuter1" stdDeviation="9"></feGaussianBlur>
	<feComposite  in="shadowBlurOuter1" in2="SourceAlpha" operator="out" result="shadowBlurOuter1"></feComposite>
	<feColorMatrix  in="shadowBlurOuter1" values="0 0 0 0 0.862745098 0 0 0 0 0.917647059 0 0 0 0 0.984313725 0 0 0 1 0">
		</feColorMatrix>
</filter>
<filter  filterUnits="objectBoundingBox" height="116.2%" id="e" width="121%" x="-10.5%" y="-6.9%">
	<feOffset  dy="2" in="SourceAlpha" result="shadowOffsetOuter1"></feOffset>
	<feGaussianBlur  in="shadowOffsetOuter1" result="shadowBlurOuter1" stdDeviation="4"></feGaussianBlur>
	<feComposite  in="shadowBlurOuter1" in2="SourceAlpha" operator="out" result="shadowBlurOuter1"></feComposite>
	<feColorMatrix  in="shadowBlurOuter1" values="0 0 0 0 0.862745098 0 0 0 0 0.917647059 0 0 0 0 0.984313725 0 0 0 1 0">
		</feColorMatrix>
</filter>
<g>
	<path class="st0" d="M618.5,1.2c5.4-2,10.2-1.4,13.8,1.4l8.9,5.3c-3.5-2.8-6.4-0.2-11.8,1.9L519.1,51.6
		c-10.7,4.1-19.3,17.3-19.3,29.7l0.8,279.6c0,4.1,1.9,7.8,5.8,11.1l-11-6.1c-3.5-2.7-5.6-7.5-5.6-13.6L489,72.7
		c0-12.3,8.6-25.6,19.3-29.7L618.5,1.2L618.5,1.2z"/>
	<path class="st1" d="M494.9,237v0.4c0,0.4-0.4,0.8-1,0.8s-1-0.3-1-0.8V237c0-0.4,0.4-0.8,1-0.8C494.4,236.2,494.9,236.5,494.9,237z
		"/>
	<path class="st2" d="M494.9,114.5v20.1c0,0.7-0.7,1.3-1.5,1.3c-0.8,0-1.5-0.6-1.5-1.3v-20.1c0-0.7,0.7-1.3,1.5-1.3
		S494.9,113.8,494.9,114.5z"/>
	<path class="st3" d="M498.8,95.5L490,93v-2.5l8.8,2.5V95.5z M498.8,343.5L490,341v-2.5l8.8,2.5V343.5z"/>
	<path class="st4" d="M497.8,77.6l0.8,279.3c0,12.3,8.8,19,19.5,15L628.7,330c10.7-4.1,19.4-17.3,19.3-29.6l-0.8-279.3
		c0-12.3-8.8-19-19.5-15L517.2,47.9C506.5,52,497.8,65.3,497.8,77.6z"/>
	<path class="st3" d="M505.7,80.5l0.7,270.9c0,11.2,7.9,17.3,17.6,13.6l101.6-38.6c9.7-3.7,17.6-15.8,17.5-27l-0.7-270.9
		c0-11.2-7.9-17.3-17.6-13.6L523.2,53.5C513.5,57.2,505.7,69.3,505.7,80.5L505.7,80.5z"/>
	
		<linearGradient id="SVGID_1_" gradientUnits="userSpaceOnUse" x1="131.1495" y1="717.9965" x2="131.1495" y2="716.9713" gradientTransform="matrix(-18.648 0 0 -24.6044 3023.4998 17973.7383)">
		<stop  offset="0" style="stop-color:#FFFFFE"/>
		<stop  offset="1" style="stop-color:#DFE9F5"/>
	</linearGradient>
	<path class="st5" d="M577.8,337c5.2-2,9.3-8.9,9.3-15.4s-4.2-10.1-9.3-8.1c-5.1,2-9.3,8.9-9.3,15.4S572.7,339,577.8,337z"/>
	
		<linearGradient id="SVGID_2_" gradientUnits="userSpaceOnUse" x1="131.5187" y1="717.8627" x2="131.5187" y2="716.8375" gradientTransform="matrix(-17.667 0 0 -23.62 2900.875 17263.9824)">
		<stop  offset="0" style="stop-color:#FFFFFE"/>
		<stop  offset="1" style="stop-color:#EBF1F9"/>
	</linearGradient>
	<path class="st6" d="M577.3,336.1c4.9-1.9,8.8-8.5,8.8-14.8s-4-9.7-8.8-7.8c-4.9,1.9-8.8,8.5-8.8,14.8
		C568.5,334.5,572.5,338,577.3,336.1z"/>
	
		<linearGradient id="SVGID_3_" gradientUnits="userSpaceOnUse" x1="125.0354" y1="719.8002" x2="126.1757" y2="720.9127" gradientTransform="matrix(-127.592 0 0 -288.363 16583.5918 207875.0156)">
		<stop  offset="0" style="stop-color:#014C9E"/>
		<stop  offset="1" style="stop-color:#2A90D2"/>
	</linearGradient>
	<path class="st7" d="M510.6,332.6l127.6-48.3v-240L510.6,92.6"/>
	<path class="st1" d="M522.8,41.8c0.6,0.5,1.5,0.7,2.1,0.5c0.2-0.1,0.3-0.2,0.4-0.3c0.1-0.3,0-0.7-0.4-1c-0.6-0.5-1.5-0.7-2.1-0.5
		c-0.4,0.2-0.5,0.5-0.4,0.8 M593.9,13.9c1.1,0.7,3,1,4.2,0.7c0.4-0.1,0.6-0.3,0.8-0.5c0.3-0.4,0-1-0.7-1.5c-1.2-0.7-3-1-4.2-0.7
		c-0.8,0.2-1,0.7-0.8,1.2"/>
	<path class="st8" d="M565.6,55.8c0,1.4,1,1.5,2.2,1l23.2-8.7c1.2-0.4,2.1-1.3,2.1-2.6c0-1.4-1-1.4-2.2-1l-23.2,8.7
		C566.5,53.7,565.6,54.5,565.6,55.8L565.6,55.8z M553.8,60.8c0,1.3,0.9,1.4,2.1,1l4.7-1.8c1.1-0.4,2.1-1.3,2.1-2.6
		c0-1.3-0.9-1.4-2.1-1l-4.7,1.8C554.7,58.6,553.8,59.4,553.8,60.8z"/>
	<g>
		<path class="st9" d="M476.4,390.4c-5.9-2.1-15.3-1.5-20.8,1.4L129.4,511.2h-27v7.1c-0.4,2,1.1,3.9,4.6,5.2l239.6,116.4
			c5.9,2.1,15.3,1.5,20.9-1.3l353.2-130c3-1.5,4.4-3.4,4-5.1l0.1-8.5l-38.1,1.4L476.4,390.4L476.4,390.4z"/>
		<path class="st10" d="M476.3,382.1c-5.9-2.1-15.3-1.5-20.8,1.4L129.4,502.8h-27v7.1c-0.4,2,1.1,3.9,4.6,5.2l239.6,116.4
			c5.9,2.1,15.3,1.5,20.9-1.3l353.2-130c3-1.5,4.4-3.4,4-5.1l0.1-8.5l-38.1,1.4L476.3,382.1z"/>
		<path class="st11" d="M720.2,484.1c5.9,2.1,6.2,6.1,0.5,8.9l-135,49.8c0,1.8-1.8,4-4.1,4.8l-68.8,26c-2.3,0.8-4.1-0.4-4.1-2.4
			l-141.3,52.1c-5.6,2.8-15,3.4-20.9,1.3L106.9,507.9c-5.9-2.1-6.2-6.1-0.6-9l349.2-131.5c5.6-2.9,14.9-3.5,20.8-1.4L720.2,484.1
			L720.2,484.1z"/>
		<path class="st12" d="M595.3,518.5c2,0.7,2.1,2.1,0.2,3l-119.9,44c-1.9,0.9-5.1,1.1-7.1,0.4l-81.3-39.4c-2-0.7-2.1-2.1-0.2-3
			l118.5-44.4c1.9-1,5.1-1.2,7.1-0.5L595.3,518.5L595.3,518.5z"/>
		<path class="st13" d="M464.3,353.4c0,6.4-4.7,14-10.4,16.9L113.7,499.4c-1.7,0.9-3.8,8-5.9,7.3c-5-1.8-10.1-7.1-10.1-11.6V183.7
			c0-6.4,4.7-14,10.4-16.9L452.3,47.7c8.3-1.9,16.2,3,16.2,9.5L464.3,353.4L464.3,353.4z"/>
		<path class="st14" d="M468.9,356.7c0,6.4-4.7,14-10.4,16.9l-345.9,131c-5.7,2.9-10.4,0-10.4-6.4V188.9c0-6.4,4.7-14,10.4-16.9
			L458.5,51.6c5.9-2.3,10.4,0.3,10.4,6.8V356.7L468.9,356.7z"/>
		<path class="st15" d="M450.7,358.6L119.4,478.2V197.9L450.7,85.5V358.6z"/>
		<path class="st14" d="M223.5,482.8l-5.8-2.7c-1.4-0.7-1.3-1.7,0.3-2.3l15.2-5.6c1.6-0.6,4.1-0.5,5.5,0.2l5.8,2.7
			c1.4,0.7,1.3,1.7-0.3,2.3l-15.2,5.6C227.4,483.6,224.9,483.5,223.5,482.8L223.5,482.8z M255.4,558.9l-5.5-2.6
			c-1.4-0.7-1.3-1.7,0.3-2.3l15.2-5.6c1.6-0.6,4.1-0.5,5.5,0.2l5.5,2.6c1.4,0.7,1.3,1.7-0.3,2.3l-15.2,5.6
			C259.3,559.6,256.8,559.6,255.4,558.9L255.4,558.9z M463.7,412.3l-13.7-6.4c-1.4-0.7-1.3-1.7,0.3-2.3l15.2-5.6
			c1.6-0.6,4.1-0.5,5.5,0.2l13.7,6.4c1.4,0.7,1.3,1.7-0.3,2.3l-15.2,5.6C467.6,413.1,465.1,413,463.7,412.3L463.7,412.3z
			 M487.1,403.8l-13.7-6.4c-1.4-0.7-1.3-1.7,0.3-2.3l15.2-5.6c1.6-0.6,4.1-0.5,5.5,0.2l13.7,6.4c1.4,0.7,1.3,1.7-0.3,2.3l-15.2,5.6
			C490.9,404.5,488.5,404.4,487.1,403.8L487.1,403.8z M416.9,429.4l-13.7-6.4c-1.4-0.7-1.3-1.7,0.3-2.3l15.2-5.6
			c1.6-0.6,4.1-0.5,5.5,0.2l13.7,6.4c1.4,0.7,1.3,1.7-0.3,2.3l-15.2,5.6C420.8,430.1,418.3,430.1,416.9,429.4L416.9,429.4z
			 M440.3,420.9l-13.7-6.4c-1.4-0.7-1.3-1.7,0.3-2.3l15.2-5.6c1.6-0.6,4.1-0.5,5.5,0.2l13.7,6.4c1.4,0.7,1.3,1.7-0.3,2.3l-15.2,5.6
			C444.2,421.6,441.7,421.5,440.3,420.9L440.3,420.9z M370,446.6l-13.7-6.4c-1.4-0.7-1.3-1.7,0.3-2.3l15.2-5.6
			c1.6-0.6,4.1-0.5,5.5,0.2l13.7,6.4c1.4,0.7,1.3,1.7-0.3,2.3l-15.2,5.6C373.9,447.3,371.4,447.2,370,446.6L370,446.6z M393.4,438
			l-13.7-6.4c-1.4-0.7-1.3-1.7,0.3-2.3l15.2-5.6c1.6-0.6,4.1-0.5,5.5,0.2l13.7,6.4c1.4,0.7,1.3,1.7-0.3,2.3l-15.2,5.6
			C397.3,438.7,394.8,438.7,393.4,438L393.4,438z M323.2,463.6l-13.7-6.4c-1.4-0.7-1.3-1.7,0.3-2.3l15.2-5.6
			c1.6-0.6,4.1-0.5,5.5,0.2l13.7,6.4c1.4,0.7,1.3,1.7-0.3,2.3l-15.2,5.6C327.1,464.4,324.6,464.3,323.2,463.6L323.2,463.6z
			 M346.6,455.1l-13.7-6.4c-1.4-0.7-1.3-1.7,0.3-2.3l15.2-5.6c1.6-0.6,4.1-0.5,5.5,0.2l13.7,6.4c1.4,0.7,1.3,1.7-0.3,2.3l-15.2,5.6
			C350.5,455.8,348,455.8,346.6,455.1L346.6,455.1z M299.7,472.3l-13.7-6.4c-1.4-0.7-1.3-1.7,0.3-2.3l15.2-5.6
			c1.6-0.6,4.1-0.5,5.5,0.2l13.7,6.4c1.4,0.7,1.3,1.7-0.3,2.3l-15.2,5.6C303.6,473,301.1,472.9,299.7,472.3L299.7,472.3z
			 M252.7,489.4l-13.7-6.4c-1.4-0.7-1.3-1.7,0.3-2.3l15.2-5.6c1.6-0.6,4.1-0.5,5.5,0.2l13.7,6.4c1.4,0.7,1.3,1.7-0.3,2.3l-15.2,5.6
			C256.6,490.1,254.1,490.1,252.7,489.4L252.7,489.4z M276.1,480.9l-13.7-6.4c-1.4-0.7-1.3-1.7,0.3-2.3l15.2-5.6
			c1.6-0.6,4.1-0.5,5.5,0.2l13.7,6.4c1.4,0.7,1.3,1.7-0.3,2.3l-15.2,5.6C280,481.6,277.5,481.5,276.1,480.9L276.1,480.9z
			 M205.9,506.5l-13.7-6.4c-1.4-0.7-1.3-1.7,0.3-2.3l15.2-5.6c1.6-0.6,4.1-0.5,5.5,0.2l13.7,6.4c1.4,0.7,1.3,1.7-0.3,2.3l-15.2,5.6
			C209.8,507.2,207.3,507.2,205.9,506.5L205.9,506.5z M234.8,498.1c-1.6,0.6-4.1,0.5-5.5-0.1l-13.7-6.4c-1.4-0.7-1.3-1.7,0.3-2.3
			l15.2-5.6c1.6-0.6,4.1-0.5,5.5,0.2l13.7,6.4c1.4,0.7,1.3,1.7-0.3,2.3L234.8,498.1L234.8,498.1z M286.9,480.5
			c1.4-0.5,3.7-0.5,5,0.1l13.7,6.4c1.3,0.6,1.2,1.5-0.3,2.1l-15.2,5.6c-1.4,0.5-3.7,0.5-5-0.1l-13.7-6.4c-1.3-0.6-1.2-1.5,0.3-2.1
			L286.9,480.5L286.9,480.5z M237.9,511.7l-13.7-6.4c-1.4-0.7-1.3-1.7,0.3-2.3l15.2-5.6c1.6-0.6,4.1-0.5,5.5,0.2l13.7,6.4
			c1.4,0.7,1.3,1.7-0.3,2.3l-15.2,5.6C241.8,512.4,239.3,512.4,237.9,511.7L237.9,511.7z M261.3,503.2l-13.7-6.4
			c-1.4-0.7-1.3-1.7,0.3-2.3l15.2-5.6c1.6-0.6,4.1-0.5,5.5,0.2l13.7,6.4c1.4,0.7,1.3,1.7-0.3,2.3l-15.2,5.6
			C265.2,503.9,262.7,503.8,261.3,503.2L261.3,503.2z M191.1,528.8l-13.7-6.4c-1.4-0.7-1.3-1.7,0.3-2.3l15.2-5.6
			c1.6-0.6,4.1-0.5,5.5,0.2l13.7,6.4c1.4,0.7,1.3,1.7-0.3,2.3l-15.2,5.6C195,529.5,192.5,529.5,191.1,528.8L191.1,528.8z
			 M214.5,520.3l-13.7-6.4c-1.4-0.7-1.3-1.7,0.3-2.3l15.2-5.6c1.6-0.6,4.1-0.5,5.5,0.2l13.7,6.4c1.4,0.7,1.3,1.7-0.3,2.3l-15.2,5.6
			C218.4,521,215.9,520.9,214.5,520.3L214.5,520.3z M402.1,451.7l-13.7-6.4c-1.4-0.7-1.3-1.7,0.3-2.3l15.2-5.6
			c1.6-0.6,4.1-0.5,5.5,0.2l13.7,6.4c1.4,0.7,1.3,1.7-0.3,2.3l-15.2,5.6C406,452.4,403.5,452.4,402.1,451.7L402.1,451.7z
			 M355.1,468.9l-13.7-6.4c-1.4-0.7-1.3-1.7,0.3-2.3l15.2-5.6c1.6-0.6,4.1-0.5,5.5,0.2l13.7,6.4c1.4,0.7,1.3,1.7-0.3,2.3l-15.2,5.6
			C359,469.6,356.5,469.5,355.1,468.9L355.1,468.9z M378.5,460.3l-13.7-6.4c-1.4-0.7-1.3-1.7,0.3-2.3l15.2-5.6
			c1.6-0.6,4.1-0.5,5.5,0.2l13.7,6.4c1.4,0.7,1.3,1.7-0.3,2.3l-15.2,5.6C382.4,461.1,379.9,461,378.5,460.3L378.5,460.3z
			 M472.2,426.1l-13.7-6.4c-1.4-0.7-1.3-1.7,0.3-2.3l15.2-5.6c1.6-0.6,4.1-0.5,5.5,0.2l13.7,6.4c1.4,0.7,1.3,1.7-0.3,2.3l-15.2,5.6
			C476.1,426.8,473.6,426.7,472.2,426.1L472.2,426.1z M425.3,443.2l-13.7-6.4c-1.4-0.7-1.3-1.7,0.3-2.3l15.2-5.6
			c1.6-0.6,4.1-0.5,5.5,0.2l13.7,6.4c1.4,0.7,1.3,1.7-0.3,2.3l-15.2,5.6C429.2,443.9,426.7,443.9,425.3,443.2L425.3,443.2z
			 M448.7,434.7l-13.7-6.4c-1.4-0.7-1.3-1.7,0.3-2.3l15.2-5.6c1.6-0.6,4.1-0.5,5.5,0.2l13.7,6.4c1.4,0.7,1.3,1.7-0.3,2.3l-15.2,5.6
			C452.6,435.4,450.1,435.3,448.7,434.7L448.7,434.7z M308.4,485.9l-13.7-6.4c-1.4-0.7-1.3-1.7,0.3-2.3l15.2-5.6
			c1.6-0.6,4.1-0.5,5.5,0.2l13.7,6.4c1.4,0.7,1.3,1.7-0.3,2.3l-15.2,5.6C312.3,486.7,309.8,486.6,308.4,485.9L308.4,485.9z
			 M331.8,477.4l-13.7-6.4c-1.4-0.7-1.3-1.7,0.3-2.3l15.2-5.6c1.6-0.6,4.1-0.5,5.5,0.2l13.7,6.4c1.4,0.7,1.3,1.7-0.3,2.3l-15.2,5.6
			C335.7,478.1,333.2,478.1,331.8,477.4L331.8,477.4z M299.9,506.3l-13.7-6.4c-1.4-0.7-1.3-1.7,0.3-2.3l15.2-5.6
			c1.6-0.6,4.1-0.5,5.5,0.2l13.7,6.4c1.4,0.7,1.3,1.7-0.3,2.3l-15.2,5.6C303.8,507.1,301.3,507,299.9,506.3L299.9,506.3z M253,523.5
			l-13.7-6.4c-1.4-0.7-1.3-1.7,0.3-2.3l15.2-5.6c1.6-0.6,4.1-0.5,5.5,0.2l13.7,6.4c1.4,0.7,1.3,1.7-0.3,2.3l-15.2,5.6
			C256.9,524.2,254.4,524.2,253,523.5L253,523.5z M276.4,515l-13.7-6.4c-1.4-0.7-1.3-1.7,0.3-2.3l15.2-5.6c1.6-0.6,4.1-0.5,5.5,0.2
			l13.7,6.4c1.4,0.7,1.3,1.7-0.3,2.3l-15.2,5.6C280.2,515.7,277.8,515.6,276.4,515L276.4,515z M417.1,463.5l-13.7-6.4
			c-1.4-0.7-1.3-1.7,0.3-2.3l15.2-5.6c1.6-0.6,4.1-0.5,5.5,0.2l13.7,6.4c1.4,0.7,1.3,1.7-0.3,2.3l-15.2,5.6
			C421,464.2,418.5,464.2,417.1,463.5L417.1,463.5z M370.2,480.7l-13.7-6.4c-1.4-0.7-1.3-1.7,0.3-2.3l15.2-5.6
			c1.6-0.6,4.1-0.5,5.5,0.2l13.7,6.4c1.4,0.7,1.3,1.7-0.3,2.3l-15.2,5.6C374.1,481.4,371.6,481.3,370.2,480.7z M393.6,472.1
			l-13.7-6.4c-1.4-0.7-1.3-1.7,0.3-2.3l15.2-5.6c1.6-0.6,4.1-0.5,5.5,0.2l13.7,6.4c1.4,0.7,1.3,1.7-0.3,2.3l-15.2,5.6
			C397.5,472.9,395,472.8,393.6,472.1L393.6,472.1z M487.3,437.9l-13.7-6.4c-1.4-0.7-1.3-1.7,0.3-2.3l15.2-5.6
			c1.6-0.6,4.1-0.5,5.5,0.2l13.7,6.4c1.4,0.7,1.3,1.7-0.3,2.3l-15.2,5.6C491.2,438.6,488.7,438.5,487.3,437.9L487.3,437.9z
			 M440.4,455l-13.7-6.4c-1.4-0.7-1.3-1.7,0.3-2.3l15.2-5.6c1.6-0.6,4.1-0.5,5.5,0.2l13.7,6.4c1.4,0.7,1.3,1.7-0.3,2.3l-15.2,5.6
			C444.3,455.7,441.8,455.7,440.4,455L440.4,455z M463.7,446.5l-13.7-6.4c-1.4-0.7-1.3-1.7,0.3-2.3l15.2-5.6
			c1.6-0.6,4.1-0.5,5.5,0.2l13.7,6.4c1.4,0.7,1.3,1.7-0.3,2.3l-15.2,5.6C467.6,447.2,465.1,447.1,463.7,446.5L463.7,446.5z
			 M328.9,497.9c-1.6,0.6-4.1,0.5-5.5-0.1l-13.7-6.4c-1.4-0.7-1.3-1.7,0.3-2.3l15.2-5.6c1.6-0.6,4.1-0.5,5.5,0.2l13.7,6.4
			c1.4,0.7,1.3,1.7-0.3,2.3L328.9,497.9L328.9,497.9z M346.8,489.2l-13.7-6.4c-1.4-0.7-1.3-1.7,0.3-2.3l15.2-5.6
			c1.6-0.6,4.1-0.5,5.5,0.2l13.7,6.4c1.4,0.7,1.3,1.7-0.3,2.3l-15.2,5.6C350.7,489.9,348.2,489.9,346.8,489.2L346.8,489.2z
			 M308.8,520.2l-13.7-6.4c-1.4-0.7-1.3-1.7,0.3-2.3l15.2-5.6c1.6-0.6,4.1-0.5,5.5,0.2l13.7,6.4c1.4,0.7,1.3,1.7-0.3,2.3l-15.2,5.6
			C312.7,520.9,310.2,520.8,308.8,520.2L308.8,520.2z M285.2,528.8l-13.7-6.4c-1.4-0.7-1.3-1.7,0.3-2.3l15.2-5.6
			c1.6-0.6,4.1-0.5,5.5,0.2l13.7,6.4c1.4,0.7,1.3,1.7-0.3,2.3l-15.2,5.6C289.1,529.5,286.6,529.4,285.2,528.8L285.2,528.8z
			 M426,477.3l-13.7-6.4c-1.4-0.7-1.3-1.7,0.3-2.3l15.2-5.6c1.6-0.6,4.1-0.5,5.5,0.2l13.7,6.4c1.4,0.7,1.3,1.7-0.3,2.3l-15.2,5.6
			C429.9,478.1,427.4,478,426,477.3L426,477.3z M379.1,494.5l-13.7-6.4c-1.4-0.7-1.3-1.7,0.3-2.3l15.2-5.6c1.6-0.6,4.1-0.5,5.5,0.2
			l13.7,6.4c1.4,0.7,1.3,1.7-0.3,2.3l-15.2,5.6C382.9,495.2,380.5,495.2,379.1,494.5L379.1,494.5z M402.4,486l-13.7-6.4
			c-1.4-0.7-1.3-1.7,0.3-2.3l15.2-5.6c1.6-0.6,4.1-0.5,5.5,0.2l13.7,6.4c1.4,0.7,1.3,1.7-0.3,2.3l-15.2,5.6
			C406.3,486.7,403.8,486.6,402.4,486z M496.1,451.7l-13.7-6.4c-1.4-0.7-1.3-1.7,0.3-2.3l15.2-5.6c1.6-0.6,4.1-0.5,5.5,0.2l13.7,6.4
			c1.4,0.7,1.3,1.7-0.3,2.3l-15.2,5.6C500,452.4,497.6,452.4,496.1,451.7L496.1,451.7z M571.2,443.2l-15.5-7.3
			c-1.6-0.8-1.6-1.8,0-2.4l15.2-5.6c1.6-0.6,4.2-0.4,5.8,0.3l15.5,7.3c1.6,0.8,1.6,1.8,0,2.4l-15.2,5.6
			C575.4,444.1,572.8,444,571.2,443.2L571.2,443.2z M547.9,451.8l-15.5-7.3c-1.6-0.8-1.6-1.8,0-2.4l15.2-5.6
			c1.6-0.6,4.2-0.4,5.8,0.3l15.5,7.3c1.6,0.8,1.6,1.8,0,2.4l-15.2,5.6C552.1,452.6,549.5,452.5,547.9,451.8L547.9,451.8z
			 M524.5,460.3L509,453c-1.6-0.8-1.6-1.8,0-2.4l15.2-5.6c1.6-0.6,4.2-0.4,5.8,0.3l15.5,7.3c1.6,0.8,1.6,1.8,0,2.4l-15.2,5.6
			C528.7,461.2,526.1,461.1,524.5,460.3L524.5,460.3z M325.2,533.1l-15.5-7.3c-1.6-0.8-1.6-1.8,0-2.4l15.2-5.6
			c1.6-0.6,4.2-0.4,5.8,0.3l15.5,7.3c1.6,0.8,1.6,1.8,0,2.4l-15.2,5.6C329.4,534,326.8,533.9,325.2,533.1L325.2,533.1z M449.2,468.9
			l-13.7-6.4c-1.4-0.7-1.3-1.7,0.3-2.3l15.2-5.6c1.6-0.6,4.1-0.5,5.5,0.2l13.7,6.4c1.4,0.7,1.3,1.7-0.3,2.3l-15.2,5.6
			C453.1,469.6,450.6,469.5,449.2,468.9L449.2,468.9z M472.6,460.3l-13.7-6.4c-1.4-0.7-1.3-1.7,0.3-2.3l15.2-5.6
			c1.6-0.6,4.1-0.5,5.5,0.2l13.7,6.4c1.4,0.7,1.3,1.7-0.3,2.3l-15.2,5.6C476.5,461,474,461,472.6,460.3L472.6,460.3z M332.3,511.6
			l-13.7-6.4c-1.4-0.7-1.3-1.7,0.3-2.3l15.2-5.6c1.6-0.6,4.1-0.5,5.5,0.2l13.7,6.4c1.4,0.7,1.3,1.7-0.3,2.3l-15.2,5.6
			C336.2,512.3,333.7,512.2,332.3,511.6L332.3,511.6z M355.7,503l-13.7-6.4c-1.4-0.7-1.3-1.7,0.3-2.3l15.2-5.6
			c1.6-0.6,4.1-0.5,5.5,0.2l13.7,6.4c1.4,0.7,1.3,1.7-0.3,2.3l-15.2,5.6C359.6,503.8,357.1,503.7,355.7,503L355.7,503z M466.4,394.1
			l-5.8-2.7c-1.4-0.7-1.3-1.7,0.3-2.3l15.2-5.6c1.6-0.6,4.1-0.5,5.5,0.2l5.8,2.7c1.4,0.7,1.3,1.7-0.3,2.3l-15.2,5.6
			C470.3,394.8,467.8,394.7,466.4,394.1L466.4,394.1z M441.8,403.1l-5.8-2.7c-1.4-0.7-1.3-1.7,0.3-2.3l15.2-5.6
			c1.6-0.6,4.1-0.5,5.5,0.2l5.8,2.7c1.4,0.7,1.3,1.7-0.3,2.3l-15.2,5.6C445.7,403.8,443.2,403.7,441.8,403.1L441.8,403.1z
			 M417.8,411.9l-5.8-2.7c-1.4-0.7-1.3-1.7,0.3-2.3l15.2-5.6c1.6-0.6,4.1-0.5,5.5,0.2l5.8,2.7c1.4,0.7,1.3,1.7-0.3,2.3l-15.2,5.6
			C421.6,412.6,419.2,412.5,417.8,411.9L417.8,411.9z M393.2,420.8l-5.8-2.7c-1.4-0.7-1.3-1.7,0.3-2.3l15.2-5.6
			c1.6-0.6,4.1-0.5,5.5,0.2l5.8,2.7c1.4,0.7,1.3,1.7-0.3,2.3l-15.2,5.6C397.1,421.6,394.6,421.5,393.2,420.8L393.2,420.8z
			 M369.4,429.5l-5.8-2.7c-1.4-0.7-1.3-1.7,0.3-2.3l15.2-5.6c1.6-0.6,4.1-0.5,5.5,0.2l5.8,2.7c1.4,0.7,1.3,1.7-0.3,2.3l-15.2,5.6
			C373.3,430.3,370.8,430.2,369.4,429.5L369.4,429.5z M344.8,438.5l-5.8-2.7c-1.4-0.7-1.3-1.7,0.3-2.3l15.2-5.6
			c1.6-0.6,4.1-0.5,5.5,0.2l5.8,2.7c1.4,0.7,1.3,1.7-0.3,2.3l-15.2,5.6C348.7,439.2,346.2,439.2,344.8,438.5z M320.5,447.4l-5.8-2.7
			c-1.4-0.7-1.3-1.7,0.3-2.3l15.2-5.6c1.6-0.6,4.1-0.5,5.5,0.2l5.8,2.7c1.4,0.7,1.3,1.7-0.3,2.3l-15.2,5.6
			C324.4,448.1,321.9,448,320.5,447.4L320.5,447.4z M296,456.4l-5.8-2.7c-1.4-0.7-1.3-1.7,0.3-2.3l15.2-5.6c1.6-0.6,4.1-0.5,5.5,0.2
			l5.8,2.7c1.4,0.7,1.3,1.7-0.3,2.3l-15.2,5.6C299.9,457.1,297.4,457,296,456.4z M271.9,465.1l-5.8-2.7c-1.4-0.7-1.3-1.7,0.3-2.3
			l15.2-5.6c1.6-0.6,4.1-0.5,5.5,0.2l5.8,2.7c1.4,0.7,1.3,1.7-0.3,2.3l-15.2,5.6C275.8,465.9,273.3,465.8,271.9,465.1L271.9,465.1z
			 M247.4,474.1l-5.8-2.7c-1.4-0.7-1.3-1.7,0.3-2.3l15.2-5.6c1.6-0.6,4.1-0.5,5.5,0.2l5.8,2.7c1.4,0.7,1.3,1.7-0.3,2.3l-15.2,5.6
			C251.2,474.8,248.8,474.8,247.4,474.1L247.4,474.1z M198.9,491.8l-5.8-2.7c-1.4-0.7-1.3-1.7,0.3-2.3l15.2-5.6
			c1.6-0.6,4.1-0.5,5.5,0.2l5.8,2.7c1.4,0.7,1.3,1.7-0.3,2.3l-15.2,5.6C202.8,492.5,200.3,492.5,198.9,491.8L198.9,491.8z
			 M174.8,500.6l-5.8-2.7c-1.4-0.7-1.3-1.7,0.3-2.3l15.2-5.6c1.6-0.6,4.1-0.5,5.5,0.2l5.8,2.7c1.4,0.7,1.3,1.7-0.3,2.3l-15.2,5.6
			C178.7,501.4,176.2,501.3,174.8,500.6L174.8,500.6z M150.2,509.6l-5.8-2.7c-1.4-0.7-1.3-1.7,0.3-2.3l15.2-5.6
			c1.6-0.6,4.1-0.5,5.5,0.2l5.8,2.7c1.4,0.7,1.3,1.7-0.3,2.3l-15.2,5.6C154.1,510.3,151.6,510.3,150.2,509.6L150.2,509.6z
			 M495.9,417.4l-13.7-6.4c-1.4-0.7-1.3-1.7,0.3-2.3l26.7-9.8c1.6-0.6,4.1-0.5,5.5,0.2l13.7,6.4c1.4,0.7,1.3,1.7-0.3,2.3l-26.7,9.8
			C499.8,418.2,497.3,418.1,495.9,417.4L495.9,417.4z M516.1,429.5c-1.6,0.6-4.1,0.5-5.5-0.2l-13.7-6.4c-1.4-0.7-1.3-1.7,0.3-2.3
			l32.7-11.9c1.6-0.6,4.1-0.5,5.5,0.2l13.7,6.4c1.4,0.7,1.3,1.7-0.3,2.3L516.1,429.5L516.1,429.5z M519.1,443.3l-13.7-6.4
			c-1.4-0.7-1.3-1.7,0.3-2.3l44.7-16.3c1.6-0.6,4.1-0.5,5.5,0.2l13.7,6.4c1.4,0.7,1.3,1.7-0.3,2.3l-44.7,16.3
			C523,444.1,520.5,444,519.1,443.3z M495.6,471.1l-16.1-7.6c-1.4-0.7-1.3-1.7,0.3-2.3l21-7.7c1.6-0.6,4.1-0.5,5.5,0.2l16.1,7.6
			c1.4,0.7,1.3,1.7-0.3,2.3l-21,7.7C499.5,471.8,497,471.8,495.6,471.1L495.6,471.1z M349.7,524.4l-16.1-7.6
			c-1.4-0.7-1.3-1.7,0.3-2.3l21-7.7c1.6-0.6,4.1-0.5,5.5,0.2l16.1,7.6c1.4,0.7,1.3,1.7-0.3,2.3l-21,7.7
			C353.6,525.2,351.1,525.1,349.7,524.4z M176.3,519.5c-1.6,0.6-4.1,0.5-5.4-0.2l-13.7-6.4c-1.4-0.7-1.3-1.7,0.3-2.3l27.4-10
			c1.6-0.6,4.1-0.5,5.5,0.2l13.7,6.4c1.4,0.7,1.3,1.7-0.3,2.3L176.3,519.5z M211.9,538.5l-13.7-6.4c-1.4-0.7-1.3-1.7,0.3-2.3
			l33-12.1c1.6-0.6,4.1-0.5,5.5,0.2l13.7,6.4c1.4,0.7,1.3,1.7-0.3,2.3l-33,12.1C215.8,539.2,213.3,539.2,211.9,538.5L211.9,538.5z
			 M232.3,548.1l-13.7-6.4c-1.4-0.7-1.3-1.7,0.3-2.3l44.6-16.3c1.6-0.6,4.1-0.5,5.5,0.2l13.7,6.4c1.4,0.7,1.3,1.7-0.3,2.3
			l-44.6,16.3C236.2,548.8,233.7,548.8,232.3,548.1z M302.2,541.8l-5.5-2.6c-1.4-0.7-1.3-1.7,0.3-2.3l15.2-5.6
			c1.6-0.6,4.1-0.5,5.5,0.2l5.5,2.6c1.4,0.7,1.3,1.7-0.3,2.3l-15.2,5.6C306.1,542.5,303.6,542.5,302.2,541.8z M278.8,550.4
			l-16.1-7.6c-1.4-0.7-1.3-1.7,0.3-2.3l15.2-5.6c1.6-0.6,4.1-0.5,5.5,0.2l16.1,7.6c1.4,0.7,1.3,1.7-0.3,2.3l-15.2,5.6
			C282.6,551.1,280.2,551,278.8,550.4L278.8,550.4z M378.7,513.8l-16.1-7.6c-1.4-0.7-1.3-1.7,0.3-2.3l108.8-39.8
			c1.6-0.6,4.1-0.5,5.5,0.2l16.1,7.6c1.4,0.7,1.3,1.7-0.3,2.3L384.2,514C382.6,514.6,380.1,514.5,378.7,513.8L378.7,513.8z"/>
		<path class="st15" d="M371.7,196.6l48.5-16.2v11.3L371.7,208V196.6z M371.7,214.6l48.5-16.3v11.3L371.7,226V214.6z M397,176.1
			c6.1-2.1,11-10.2,11-18.1c0-7.9-4.9-12.6-11-10.5c-6.1,2.1-11,10.2-11,18.1S390.9,178.2,397,176.1L397,176.1z"/>
		<path class="st10" d="M156.6,198.7l50.7-17.9v243.3l-50.7,19.7V198.7z"/>
		<path class="st16" d="M164.3,216.1l7.7-2.6v9.6l-7.7,2.6V216.1z M176.4,212.1l22.1-7.8v3.8l-22.1,7.8V212.1z M176.4,231.6
			l22.1-7.8v3.8l-22.1,7.9V231.6z M176.4,251.1l22.1-7.9v3.8l-22.1,7.9V251.1z M176.4,271.7l22.1-8v3.8l-22.1,8V271.7z M176.4,291.2
			l22.1-8v3.8l-22.1,8V291.2z M176.4,310.7l22.1-8.1v3.8l-22.1,8.1V310.7z M164.3,235.6l7.7-2.6v9.6l-7.7,2.7V235.6z M164.3,256.3
			l7.7-2.7v9.6l-7.7,2.7V256.3z M164.3,275.8l7.7-2.7v9.6l-7.7,2.7V275.8z M164.3,295.3l7.7-2.7v9.6l-7.7,2.7V295.3z M164.3,314.8
			l7.7-2.7v9.6l-7.7,2.7V314.8z"/>
		<g transform="matrix(-1 0 0 1 430.872 237.402)" class="st17">
			<g class="st18">
				<path id="f_3_" d="M122,42.9L3,0.7C1.8,0.2,0.8,1.2,0.8,2.8v109.9c0,1.6,1,3.2,2.3,3.7l119,44.3c1.2,0.5,2.3-0.4,2.3-2.1V46.6
					C124.3,45,123.3,43.4,122,42.9L122,42.9z"/>
			</g>
			<g class="st19">
				<path id="f_1_" class="st15" d="M122,42.9L3,0.7C1.8,0.2,0.8,1.2,0.8,2.8v109.9c0,1.6,1,3.2,2.3,3.7l119,44.3
					c1.2,0.5,2.3-0.4,2.3-2.1V46.6C124.3,45,123.3,43.4,122,42.9L122,42.9z"/>
			</g>
			<path class="st20" d="M121.8,43.5L2.8,1.2C2,1,1.4,1.5,1.4,2.8v109.9c0,1.3,0.9,2.8,1.9,3.1l119,44.3c0.8,0.3,1.4-0.3,1.4-1.5
				V46.6C123.7,45.3,122.8,43.8,121.8,43.5z"/>
		</g>
		<path class="st21" d="M418,320.5 M325.3,354.7 M418,293.9 M325.3,327.8"/>
		<path class="st22" d="M385.6,299.9l15.1-5.4c0.4-0.1,0.7,0.2,0.7,0.7v12.1c0,0.5-0.3,1.1-0.7,1.2l-5.4,1.9l-2.2,2.7L391,312
			l-5.4,2c-0.4,0.1-0.7-0.2-0.7-0.7v-12.1C384.9,300.6,385.2,300.1,385.6,299.9z"/>
		<path class="st23" d="M267.4,236.7c1.5-0.6,2.8-2.7,2.8-4.8s-1.2-3.3-2.8-2.7s-2.8,2.7-2.8,4.8
			C264.7,236.1,265.9,237.3,267.4,236.7z"/>
		<path class="st24" d="M266.9,238.8c2.4-0.9,4.4-4.3,4.4-7.6c0-3.3-2-5.2-4.4-4.3c-2.4,0.9-4.4,4.3-4.4,7.6
			C262.5,237.8,264.4,239.7,266.9,238.8L266.9,238.8z"/>
		<path class="st25" d="M267.4,234.5c0.9-0.3,1.7-1.6,1.7-2.8s-0.7-1.9-1.7-1.6c-0.9,0.3-1.7,1.6-1.7,2.8
			C265.8,234.1,266.5,234.8,267.4,234.5z"/>
		<g class="st26">
			<g transform="matrix(-1 0 0 1 356.297 134.292)" class="st27">
				<g class="st28">
					<path id="i_3_" d="M158.9,48.7L2.3,0.2C1.1-0.2,0.1,0.7,0.1,2.3v112c0,1.6,1,3.3,2.3,3.7L158.9,175c1.2,0.5,2.3-0.5,2.3-2.1
						V52.4C161.1,50.8,160.1,49.1,158.9,48.7L158.9,48.7z"/>
				</g>
				<g>
					<path id="i_1_" class="st15" d="M158.9,48.7L2.3,0.2C1.1-0.2,0.1,0.7,0.1,2.3v112c0,1.6,1,3.3,2.3,3.7L158.9,175
						c1.2,0.5,2.3-0.5,2.3-2.1V52.4C161.1,50.8,160.1,49.1,158.9,48.7L158.9,48.7z"/>
				</g>
				<path class="st29" d="M158.7,49.2L2.1,0.8C1.3,0.5,0.7,1.1,0.7,2.3v112c0,1.4,0.9,2.8,1.9,3.1l156.5,56.9
					c0.8,0.3,1.4-0.3,1.4-1.6V52.4C160.5,51,159.7,49.6,158.7,49.2z"/>
			</g>
			<path class="st30" d="M215,189.5l14.3-5.3v3.1l-14.3,5.3L215,189.5z M254.7,175.5l14.3-5.3v3.1l-14.3,5.3V175.5z"/>
			<path class="st31" d="M205.1,257.1l141.2-50.6 M205.1,241.2l141.2-50.2 M205.1,226.3l141.2-49.9 M205.1,273.1l141.2-50.9
				 M205.1,290.2L346.3,239"/>
			
				<linearGradient id="SVGID_4_" gradientUnits="userSpaceOnUse" x1="125.8453" y1="719.4745" x2="124.8453" y2="719.4745" gradientTransform="matrix(-146.702 0 0 -77.0333 18664.6445 55649.7695)">
				<stop  offset="0" style="stop-color:#5BD4F2;stop-opacity:0"/>
				<stop  offset="0.2015" style="stop-color:#78DC6C"/>
				<stop  offset="0.5179" style="stop-color:#46C0E9"/>
				<stop  offset="0.7991" style="stop-color:#32ADE2"/>
				<stop  offset="1" style="stop-color:#2EA9E0;stop-opacity:0"/>
			</linearGradient>
			<path class="st32" d="M202.9,262.4c6.4-4.3,11.9-10.1,16.4-17.3c6.8-10.8,8.5-15.7,16.3-10.9c7.8,4.8,9.9-1.9,10.8,6.3
				c1,8.3,7.1,9.5,7.6,17.1c0.5,7.5,6.8,12.6,7.6-2.8c0.7-15.3,3.5-21.1,8.9-25.2c5.4-4.1,4,2.9,9,0c5-2.9,7.3-19.2,12.8-11.9
				c5.5,7.3,6.6,0,13.3-1.1c6.7-1.1,12.3-5.7,15.8-17.8c3.5-12.1,6.1-15.2,9-4.6c2.9,10.6,5.7,25.2,9,19.3
				c3.3-5.9,4.3-11.5,10.1-0.7"/>
			<path class="st33" d="M209,195.6c0.9-0.4,1.7-2,1.7-3.5s-0.7-2.4-1.7-2c-0.9,0.4-1.7,2-1.7,3.5S208,196,209,195.6L209,195.6z
				 M249.8,181.6c0.9-0.4,1.7-2,1.7-3.5c0-1.5-0.7-2.4-1.7-2c-0.9,0.4-1.7,2-1.7,3.5C248.1,181.2,248.9,182,249.8,181.6L249.8,181.6
				z"/>
		</g>
		<path class="st22" d="M289.5,170c0.9-0.4,1.7-1.9,1.7-3.4s-0.7-2.4-1.7-1.9c-0.9,0.4-1.7,1.9-1.7,3.4
			C287.8,169.6,288.6,170.4,289.5,170L289.5,170z M329.2,158.6c0.9-0.4,1.7-1.9,1.7-3.4c0-1.5-0.7-2.4-1.7-1.9
			c-0.9,0.4-1.7,1.9-1.7,3.4S328.3,159,329.2,158.6L329.2,158.6z"/>
		<path class="st22" d="M225,329.6v-4.8"/>
		<path class="st34" d="M243.2,401.1v3.8l31.4-11.6v-3.8L243.2,401.1z M247.8,391.7v3.8l26.8-9.8v-3.8L247.8,391.7L247.8,391.7z
			 M241.7,386.3v3.8l32.9-12.1v-3.8L241.7,386.3z M274.6,370.4v-3.8l-37.5,13.7h0v3.8 M241.7,370.9L241.7,370.9v3.8l32.9-12V359
			 M274.6,355.2v-3.8L244,362.4v3.8 M237.1,357.2v3.8l37.5-13.6v-3.8L237.1,357.2L237.1,357.2z M240.2,348.4v3.8l34.4-12.4V336
			L240.2,348.4z M249.3,337.5v3.8l25.3-9.1v-3.8L249.3,337.5L249.3,337.5z M274.6,324.6v-3.8l-29.1,10.4v0v3.8"/>
		<path class="st35" d="M254.4,396v3.8l-30.5,11.6v-3.8L254.4,396L254.4,396z M249.9,390.1v3.8l-26,9.9v-3.8L249.9,390.1z
			 M255.8,380.2v3.8l-32,12.1v-3.8L255.8,380.2L255.8,380.2z M244.7,376.7v3.8l-20.8,7.9v-3.8L244.7,376.7L244.7,376.7z
			 M240.2,370.7v3.8l-16.4,6.2v-3.8L240.2,370.7z M238,363.9v3.8l-14.1,5.3v-3.8L238,363.9z M244.7,353.7v3.8l-20.8,7.8v-3.8
			L244.7,353.7z M241.7,347.2v3.8l-17.9,6.7v-3.8L241.7,347.2z M223.9,350v-3.8 M252.1,328v3.8l-28.3,10.5v-3.8L252.1,328z"/>
	</g>
</g>
<path class="st10" d="M244.3,193.7l151.7-53.6v41.4L244.3,235V193.7z"/>
<path class="st36" d="M318,210.8l7.5-2.6l0.8,27.8l-7.5,2.6L318,210.8z"/>
<path class="st10" d="M247.8,265.7l151.7-53.6v41.4l-151.7,53.5V265.7z"/>
<path class="st36" d="M321.5,282.9l7.5-2.7l0.8,27.9l-7.6,2.7L321.5,282.9z"/>
<path class="st10" d="M251.3,338.7l151.7-53.6v41.4L251.3,380V338.7z"/>
<g>
	<path class="st8" d="M574.5,24.1c5.4-2,10.2-1.4,13.8,1.4l8.9,5.3c-3.5-2.8-6.4-0.2-11.8,1.9L475.1,74.5
		c-10.7,4.1-19.3,17.3-19.3,29.7l0.8,279.6c0,4.1,1.9,7.8,5.8,11.1l-11-6.1c-3.5-2.7-5.6-7.5-5.6-13.6L445,95.7
		c0-12.3,8.6-25.6,19.3-29.7L574.5,24.1L574.5,24.1z"/>
	<path class="st37" d="M450.9,259.9v0.4c0,0.4-0.4,0.8-1,0.8s-1-0.3-1-0.8v-0.4c0-0.4,0.4-0.8,1-0.8
		C450.4,259.1,450.9,259.5,450.9,259.9z"/>
	<path class="st38" d="M450.9,137.4v20.1c0,0.7-0.7,1.3-1.5,1.3c-0.8,0-1.5-0.6-1.5-1.3v-20.1c0-0.7,0.7-1.3,1.5-1.3
		S450.9,136.7,450.9,137.4z"/>
	<path class="st39" d="M454.8,118.4l-8.8-2.5v-2.5l8.8,2.5V118.4z M454.8,366.4L446,364v-2.5l8.8,2.5V366.4z"/>
	<path class="st40" d="M453.8,100.5l0.8,279.3c0,12.3,8.8,19,19.5,15l110.6-41.8c10.7-4.1,19.4-17.3,19.3-29.6L603.2,44
		c0-12.3-8.8-19-19.5-15L473.2,70.9C462.5,74.9,453.8,88.2,453.8,100.5z"/>
	<path class="st39" d="M461.7,103.4l0.7,270.9c0,11.2,7.9,17.3,17.6,13.6l101.6-38.6c9.7-3.7,17.6-15.8,17.5-27l-0.7-270.9
		c0-11.2-7.9-17.3-17.6-13.6L479.2,76.4C469.5,80.1,461.7,92.2,461.7,103.4L461.7,103.4z"/>
	
		<linearGradient id="SVGID_5_" gradientUnits="userSpaceOnUse" x1="133.509" y1="717.0641" x2="133.509" y2="716.0389" gradientTransform="matrix(-18.648 0 0 -24.6044 3023.4998 17973.7383)">
		<stop  offset="0" style="stop-color:#FFFFFE"/>
		<stop  offset="1" style="stop-color:#DFE9F5"/>
	</linearGradient>
	<path class="st41" d="M533.8,360c5.2-2,9.3-8.9,9.3-15.4s-4.2-10.1-9.3-8.1c-5.1,2-9.3,8.9-9.3,15.4S528.7,362,533.8,360z"/>
	
		<linearGradient id="SVGID_6_" gradientUnits="userSpaceOnUse" x1="134.0093" y1="716.8914" x2="134.0093" y2="715.8662" gradientTransform="matrix(-17.667 0 0 -23.62 2900.875 17263.9824)">
		<stop  offset="0" style="stop-color:#FFFFFE"/>
		<stop  offset="1" style="stop-color:#EBF1F9"/>
	</linearGradient>
	<path class="st42" d="M533.3,359c4.9-1.9,8.8-8.5,8.8-14.8s-4-9.7-8.8-7.8c-4.9,1.9-8.8,8.5-8.8,14.8
		C524.5,357.4,528.5,360.9,533.3,359z"/>
	
		<linearGradient id="SVGID_7_" gradientUnits="userSpaceOnUse" x1="125.3802" y1="719.7206" x2="126.5206" y2="720.8332" gradientTransform="matrix(-127.592 0 0 -288.363 16583.5918 207875.0156)">
		<stop  offset="0" style="stop-color:#014C9E"/>
		<stop  offset="1" style="stop-color:#2A90D2"/>
	</linearGradient>
	<path class="st43" d="M466.6,355.6l127.6-48.3v-240l-127.6,48.3"/>
	<path class="st37" d="M478.8,64.7c0.6,0.5,1.5,0.7,2.1,0.5c0.2-0.1,0.3-0.2,0.4-0.3c0.1-0.3,0-0.7-0.4-1c-0.6-0.5-1.5-0.7-2.1-0.5
		c-0.4,0.2-0.5,0.5-0.4,0.8 M549.9,36.9c1.1,0.7,3,1,4.2,0.7c0.4-0.1,0.6-0.3,0.8-0.5c0.3-0.4,0-1-0.7-1.5c-1.2-0.7-3-1-4.2-0.7
		c-0.8,0.2-1,0.7-0.8,1.2"/>
	<path class="st8" d="M521.6,78.8c0,1.4,1,1.5,2.2,1l23.2-8.7c1.2-0.4,2.1-1.3,2.1-2.6c0-1.4-1-1.4-2.2-1l-23.2,8.7
		C522.5,76.6,521.6,77.4,521.6,78.8L521.6,78.8z M509.8,83.7c0,1.3,0.9,1.4,2.1,1l4.7-1.8c1.1-0.4,2.1-1.3,2.1-2.6
		c0-1.3-0.9-1.4-2.1-1l-4.7,1.8C510.7,81.5,509.8,82.4,509.8,83.7z"/>
	<g class="st26">
		<path class="st44" d="M432.4,413.4c-5.9-2.1-15.3-1.5-20.8,1.4L85.4,534.1h-27v7.1c-0.4,2,1.1,3.9,4.6,5.2l239.6,116.4
			c5.9,2.1,15.3,1.5,20.9-1.3l353.2-130c3-1.5,4.4-3.4,4-5.1l0.1-8.5l-38.1,1.4L432.4,413.4L432.4,413.4z"/>
		<path class="st45" d="M432.3,405c-5.9-2.1-15.3-1.5-20.8,1.4L85.4,525.8h-27v7.1c-0.4,2,1.1,3.9,4.6,5.2l239.6,116.4
			c5.9,2.1,15.3,1.5,20.9-1.3l353.2-130c3-1.5,4.4-3.4,4-5.1l0.1-8.5l-38.1,1.4L432.3,405z"/>
		<path class="st46" d="M676.2,507.1c5.9,2.1,6.2,6.1,0.5,8.9l-135,49.8c0,1.8-1.8,4-4.1,4.8l-68.8,26c-2.3,0.8-4.1-0.4-4.1-2.4
			l-141.3,52.1c-5.6,2.8-15,3.4-20.9,1.3L62.9,530.9c-5.9-2.1-6.2-6.1-0.6-9l349.2-131.5c5.6-2.9,14.9-3.5,20.8-1.4L676.2,507.1
			L676.2,507.1z"/>
		<path class="st47" d="M551.3,541.4c2,0.7,2.1,2.1,0.2,3l-119.9,44c-1.9,0.9-5.1,1.1-7.1,0.4l-81.3-39.4c-2-0.7-2.1-2.1-0.2-3
			L461.4,502c1.9-1,5.1-1.2,7.1-0.5L551.3,541.4L551.3,541.4z"/>
		<path class="st48" d="M420.3,376.3c0,6.4-4.7,14-10.4,16.9L69.7,522.4c-1.7,0.9-3.8,8-5.9,7.3c-5-1.8-10.1-7.1-10.1-11.6V206.6
			c0-6.4,4.7-14,10.4-16.9L408.3,70.6c8.3-1.9,16.2,3,16.2,9.5L420.3,376.3L420.3,376.3z"/>
		<path class="st49" d="M424.9,379.6c0,6.4-4.7,14-10.4,16.9l-345.9,131c-5.7,2.9-10.4,0-10.4-6.4V211.8c0-6.4,4.7-14,10.4-16.9
			L414.5,74.5c5.9-2.3,10.4,0.3,10.4,6.8V379.6L424.9,379.6z"/>
		<path class="st50" d="M406.7,381.5L75.4,501.1V220.8l331.2-112.4V381.5z"/>
		<path class="st49" d="M179.5,505.8l-5.8-2.7c-1.4-0.7-1.3-1.7,0.3-2.3l15.2-5.6c1.6-0.6,4.1-0.5,5.5,0.2l5.8,2.7
			c1.4,0.7,1.3,1.7-0.3,2.3l-15.2,5.6C183.4,506.5,180.9,506.4,179.5,505.8L179.5,505.8z M211.4,581.8l-5.5-2.6
			c-1.4-0.7-1.3-1.7,0.3-2.3l15.2-5.6c1.6-0.6,4.1-0.5,5.5,0.2l5.5,2.6c1.4,0.7,1.3,1.7-0.3,2.3l-15.2,5.6
			C215.3,582.6,212.8,582.5,211.4,581.8L211.4,581.8z M419.7,435.3l-13.7-6.4c-1.4-0.7-1.3-1.7,0.3-2.3l15.2-5.6
			c1.6-0.6,4.1-0.5,5.5,0.2l13.7,6.4c1.4,0.7,1.3,1.7-0.3,2.3l-15.2,5.6C423.6,436,421.1,435.9,419.7,435.3L419.7,435.3z
			 M443.1,426.7l-13.7-6.4c-1.4-0.7-1.3-1.7,0.3-2.3l15.2-5.6c1.6-0.6,4.1-0.5,5.5,0.2l13.7,6.4c1.4,0.7,1.3,1.7-0.3,2.3l-15.2,5.6
			C446.9,427.5,444.5,427.4,443.1,426.7L443.1,426.7z M372.9,452.3l-13.7-6.4c-1.4-0.7-1.3-1.7,0.3-2.3l15.2-5.6
			c1.6-0.6,4.1-0.5,5.5,0.2l13.7,6.4c1.4,0.7,1.3,1.7-0.3,2.3l-15.2,5.6C376.8,453.1,374.3,453,372.9,452.3L372.9,452.3z
			 M396.3,443.8l-13.7-6.4c-1.4-0.7-1.3-1.7,0.3-2.3l15.2-5.6c1.6-0.6,4.1-0.5,5.5,0.2l13.7,6.4c1.4,0.7,1.3,1.7-0.3,2.3l-15.2,5.6
			C400.2,444.5,397.7,444.5,396.3,443.8L396.3,443.8z M326,469.5l-13.7-6.4c-1.4-0.7-1.3-1.7,0.3-2.3l15.2-5.6
			c1.6-0.6,4.1-0.5,5.5,0.2l13.7,6.4c1.4,0.7,1.3,1.7-0.3,2.3l-15.2,5.6C329.9,470.2,327.4,470.2,326,469.5L326,469.5z M349.4,460.9
			l-13.7-6.4c-1.4-0.7-1.3-1.7,0.3-2.3l15.2-5.6c1.6-0.6,4.1-0.5,5.5,0.2l13.7,6.4c1.4,0.7,1.3,1.7-0.3,2.3l-15.2,5.6
			C353.3,461.7,350.8,461.6,349.4,460.9L349.4,460.9z M279.2,486.6l-13.7-6.4c-1.4-0.7-1.3-1.7,0.3-2.3l15.2-5.6
			c1.6-0.6,4.1-0.5,5.5,0.2l13.7,6.4c1.4,0.7,1.3,1.7-0.3,2.3l-15.2,5.6C283.1,487.3,280.6,487.2,279.2,486.6L279.2,486.6z
			 M302.6,478l-13.7-6.4c-1.4-0.7-1.3-1.7,0.3-2.3l15.2-5.6c1.6-0.6,4.1-0.5,5.5,0.2l13.7,6.4c1.4,0.7,1.3,1.7-0.3,2.3l-15.2,5.6
			C306.5,478.8,304,478.7,302.6,478L302.6,478z M255.7,495.2l-13.7-6.4c-1.4-0.7-1.3-1.7,0.3-2.3l15.2-5.6c1.6-0.6,4.1-0.5,5.5,0.2
			l13.7,6.4c1.4,0.7,1.3,1.7-0.3,2.3l-15.2,5.6C259.6,495.9,257.1,495.9,255.7,495.2L255.7,495.2z M208.7,512.3l-13.7-6.4
			c-1.4-0.7-1.3-1.7,0.3-2.3l15.2-5.6c1.6-0.6,4.1-0.5,5.5,0.2l13.7,6.4c1.4,0.7,1.3,1.7-0.3,2.3l-15.2,5.6
			C212.6,513.1,210.1,513,208.7,512.3L208.7,512.3z M232.1,503.8l-13.7-6.4c-1.4-0.7-1.3-1.7,0.3-2.3l15.2-5.6
			c1.6-0.6,4.1-0.5,5.5,0.2l13.7,6.4c1.4,0.7,1.3,1.7-0.3,2.3l-15.2,5.6C236,504.5,233.5,504.5,232.1,503.8L232.1,503.8z
			 M161.9,529.4l-13.7-6.4c-1.4-0.7-1.3-1.7,0.3-2.3l15.2-5.6c1.6-0.6,4.1-0.5,5.5,0.2l13.7,6.4c1.4,0.7,1.3,1.7-0.3,2.3l-15.2,5.6
			C165.8,530.2,163.3,530.1,161.9,529.4L161.9,529.4z M190.8,521c-1.6,0.6-4.1,0.5-5.5-0.1l-13.7-6.4c-1.4-0.7-1.3-1.7,0.3-2.3
			l15.2-5.6c1.6-0.6,4.1-0.5,5.5,0.2l13.7,6.4c1.4,0.7,1.3,1.7-0.3,2.3L190.8,521L190.8,521z M242.9,503.4c1.4-0.5,3.7-0.5,5,0.1
			l13.7,6.4c1.3,0.6,1.2,1.5-0.3,2.1l-15.2,5.6c-1.4,0.5-3.7,0.5-5-0.1l-13.7-6.4c-1.3-0.6-1.2-1.5,0.3-2.1L242.9,503.4L242.9,503.4
			z M193.9,534.6l-13.7-6.4c-1.4-0.7-1.3-1.7,0.3-2.3l15.2-5.6c1.6-0.6,4.1-0.5,5.5,0.2l13.7,6.4c1.4,0.7,1.3,1.7-0.3,2.3l-15.2,5.6
			C197.8,535.4,195.3,535.3,193.9,534.6L193.9,534.6z M217.3,526.1l-13.7-6.4c-1.4-0.7-1.3-1.7,0.3-2.3l15.2-5.6
			c1.6-0.6,4.1-0.5,5.5,0.2l13.7,6.4c1.4,0.7,1.3,1.7-0.3,2.3l-15.2,5.6C221.2,526.8,218.7,526.8,217.3,526.1L217.3,526.1z
			 M147.1,551.7l-13.7-6.4c-1.4-0.7-1.3-1.7,0.3-2.3l15.2-5.6c1.6-0.6,4.1-0.5,5.5,0.2l13.7,6.4c1.4,0.7,1.3,1.7-0.3,2.3l-15.2,5.6
			C151,552.5,148.5,552.4,147.1,551.7L147.1,551.7z M170.5,543.2l-13.7-6.4c-1.4-0.7-1.3-1.7,0.3-2.3l15.2-5.6
			c1.6-0.6,4.1-0.5,5.5,0.2l13.7,6.4c1.4,0.7,1.3,1.7-0.3,2.3l-15.2,5.6C174.4,543.9,171.9,543.9,170.5,543.2L170.5,543.2z
			 M358.1,474.7l-13.7-6.4c-1.4-0.7-1.3-1.7,0.3-2.3l15.2-5.6c1.6-0.6,4.1-0.5,5.5,0.2l13.7,6.4c1.4,0.7,1.3,1.7-0.3,2.3l-15.2,5.6
			C362,475.4,359.5,475.3,358.1,474.7L358.1,474.7z M311.1,491.8l-13.7-6.4c-1.4-0.7-1.3-1.7,0.3-2.3l15.2-5.6
			c1.6-0.6,4.1-0.5,5.5,0.2l13.7,6.4c1.4,0.7,1.3,1.7-0.3,2.3l-15.2,5.6C315,492.5,312.5,492.5,311.1,491.8L311.1,491.8z
			 M334.5,483.3l-13.7-6.4c-1.4-0.7-1.3-1.7,0.3-2.3l15.2-5.6c1.6-0.6,4.1-0.5,5.5,0.2l13.7,6.4c1.4,0.7,1.3,1.7-0.3,2.3l-15.2,5.6
			C338.4,484,335.9,483.9,334.5,483.3L334.5,483.3z M428.2,449l-13.7-6.4c-1.4-0.7-1.3-1.7,0.3-2.3l15.2-5.6
			c1.6-0.6,4.1-0.5,5.5,0.2l13.7,6.4c1.4,0.7,1.3,1.7-0.3,2.3l-15.2,5.6C432.1,449.7,429.6,449.7,428.2,449L428.2,449z M381.3,466.2
			l-13.7-6.4c-1.4-0.7-1.3-1.7,0.3-2.3l15.2-5.6c1.6-0.6,4.1-0.5,5.5,0.2l13.7,6.4c1.4,0.7,1.3,1.7-0.3,2.3l-15.2,5.6
			C385.2,466.9,382.7,466.8,381.3,466.2L381.3,466.2z M404.7,457.6l-13.7-6.4c-1.4-0.7-1.3-1.7,0.3-2.3l15.2-5.6
			c1.6-0.6,4.1-0.5,5.5,0.2l13.7,6.4c1.4,0.7,1.3,1.7-0.3,2.3l-15.2,5.6C408.6,458.4,406.1,458.3,404.7,457.6L404.7,457.6z
			 M264.4,508.9l-13.7-6.4c-1.4-0.7-1.3-1.7,0.3-2.3l15.2-5.6c1.6-0.6,4.1-0.5,5.5,0.2l13.7,6.4c1.4,0.7,1.3,1.7-0.3,2.3l-15.2,5.6
			C268.3,509.6,265.8,509.5,264.4,508.9L264.4,508.9z M287.8,500.3l-13.7-6.4c-1.4-0.7-1.3-1.7,0.3-2.3l15.2-5.6
			c1.6-0.6,4.1-0.5,5.5,0.2l13.7,6.4c1.4,0.7,1.3,1.7-0.3,2.3l-15.2,5.6C291.7,501.1,289.2,501,287.8,500.3L287.8,500.3z
			 M255.9,529.3l-13.7-6.4c-1.4-0.7-1.3-1.7,0.3-2.3l15.2-5.6c1.6-0.6,4.1-0.5,5.5,0.2l13.7,6.4c1.4,0.7,1.3,1.7-0.3,2.3l-15.2,5.6
			C259.8,530,257.3,529.9,255.9,529.3L255.9,529.3z M209,546.4l-13.7-6.4c-1.4-0.7-1.3-1.7,0.3-2.3l15.2-5.6
			c1.6-0.6,4.1-0.5,5.5,0.2l13.7,6.4c1.4,0.7,1.3,1.7-0.3,2.3l-15.2,5.6C212.9,547.2,210.4,547.1,209,546.4L209,546.4z M232.4,537.9
			l-13.7-6.4c-1.4-0.7-1.3-1.7,0.3-2.3l15.2-5.6c1.6-0.6,4.1-0.5,5.5,0.2l13.7,6.4c1.4,0.7,1.3,1.7-0.3,2.3l-15.2,5.6
			C236.2,538.6,233.8,538.6,232.4,537.9L232.4,537.9z M373.1,486.5l-13.7-6.4c-1.4-0.7-1.3-1.7,0.3-2.3l15.2-5.6
			c1.6-0.6,4.1-0.5,5.5,0.2l13.7,6.4c1.4,0.7,1.3,1.7-0.3,2.3l-15.2,5.6C377,487.2,374.5,487.1,373.1,486.5L373.1,486.5z
			 M326.2,503.6l-13.7-6.4c-1.4-0.7-1.3-1.7,0.3-2.3l15.2-5.6c1.6-0.6,4.1-0.5,5.5,0.2l13.7,6.4c1.4,0.7,1.3,1.7-0.3,2.3l-15.2,5.6
			C330.1,504.3,327.6,504.3,326.2,503.6z M349.6,495.1l-13.7-6.4c-1.4-0.7-1.3-1.7,0.3-2.3l15.2-5.6c1.6-0.6,4.1-0.5,5.5,0.2
			l13.7,6.4c1.4,0.7,1.3,1.7-0.3,2.3l-15.2,5.6C353.5,495.8,351,495.7,349.6,495.1L349.6,495.1z M443.3,460.8l-13.7-6.4
			c-1.4-0.7-1.3-1.7,0.3-2.3l15.2-5.6c1.6-0.6,4.1-0.5,5.5,0.2l13.7,6.4c1.4,0.7,1.3,1.7-0.3,2.3l-15.2,5.6
			C447.2,461.5,444.7,461.5,443.3,460.8L443.3,460.8z M396.4,478l-13.7-6.4c-1.4-0.7-1.3-1.7,0.3-2.3l15.2-5.6
			c1.6-0.6,4.1-0.5,5.5,0.2l13.7,6.4c1.4,0.7,1.3,1.7-0.3,2.3l-15.2,5.6C400.3,478.7,397.8,478.6,396.4,478L396.4,478z M419.7,469.4
			l-13.7-6.4c-1.4-0.7-1.3-1.7,0.3-2.3l15.2-5.6c1.6-0.6,4.1-0.5,5.5,0.2l13.7,6.4c1.4,0.7,1.3,1.7-0.3,2.3l-15.2,5.6
			C423.6,470.2,421.1,470.1,419.7,469.4L419.7,469.4z M284.9,520.8c-1.6,0.6-4.1,0.5-5.5-0.1l-13.7-6.4c-1.4-0.7-1.3-1.7,0.3-2.3
			l15.2-5.6c1.6-0.6,4.1-0.5,5.5,0.2l13.7,6.4c1.4,0.7,1.3,1.7-0.3,2.3L284.9,520.8L284.9,520.8z M302.8,512.1l-13.7-6.4
			c-1.4-0.7-1.3-1.7,0.3-2.3l15.2-5.6c1.6-0.6,4.1-0.5,5.5,0.2l13.7,6.4c1.4,0.7,1.3,1.7-0.3,2.3l-15.2,5.6
			C306.7,512.9,304.2,512.8,302.8,512.1L302.8,512.1z M264.8,543.1l-13.7-6.4c-1.4-0.7-1.3-1.7,0.3-2.3l15.2-5.6
			c1.6-0.6,4.1-0.5,5.5,0.2l13.7,6.4c1.4,0.7,1.3,1.7-0.3,2.3l-15.2,5.6C268.7,543.9,266.2,543.8,264.8,543.1L264.8,543.1z
			 M241.2,551.7l-13.7-6.4c-1.4-0.7-1.3-1.7,0.3-2.3l15.2-5.6c1.6-0.6,4.1-0.5,5.5,0.2l13.7,6.4c1.4,0.7,1.3,1.7-0.3,2.3l-15.2,5.6
			C245.1,552.5,242.6,552.4,241.2,551.7L241.2,551.7z M382,500.3l-13.7-6.4c-1.4-0.7-1.3-1.7,0.3-2.3l15.2-5.6
			c1.6-0.6,4.1-0.5,5.5,0.2l13.7,6.4c1.4,0.7,1.3,1.7-0.3,2.3l-15.2,5.6C385.9,501,383.4,500.9,382,500.3L382,500.3z M335.1,517.4
			l-13.7-6.4c-1.4-0.7-1.3-1.7,0.3-2.3l15.2-5.6c1.6-0.6,4.1-0.5,5.5,0.2l13.7,6.4c1.4,0.7,1.3,1.7-0.3,2.3l-15.2,5.6
			C338.9,518.2,336.5,518.1,335.1,517.4L335.1,517.4z M358.4,508.9l-13.7-6.4c-1.4-0.7-1.3-1.7,0.3-2.3l15.2-5.6
			c1.6-0.6,4.1-0.5,5.5,0.2l13.7,6.4c1.4,0.7,1.3,1.7-0.3,2.3l-15.2,5.6C362.3,509.6,359.8,509.6,358.4,508.9z M452.1,474.6
			l-13.7-6.4c-1.4-0.7-1.3-1.7,0.3-2.3l15.2-5.6c1.6-0.6,4.1-0.5,5.5,0.2l13.7,6.4c1.4,0.7,1.3,1.7-0.3,2.3l-15.2,5.6
			C456,475.4,453.6,475.3,452.1,474.6L452.1,474.6z M527.2,466.2l-15.5-7.3c-1.6-0.8-1.6-1.8,0-2.4l15.2-5.6
			c1.6-0.6,4.2-0.4,5.8,0.3l15.5,7.3c1.6,0.8,1.6,1.8,0,2.4l-15.2,5.6C531.4,467,528.8,466.9,527.2,466.2L527.2,466.2z M503.9,474.7
			l-15.5-7.3c-1.6-0.8-1.6-1.8,0-2.4l15.2-5.6c1.6-0.6,4.2-0.4,5.8,0.3l15.5,7.3c1.6,0.8,1.6,1.8,0,2.4l-15.2,5.6
			C508.1,475.6,505.5,475.5,503.9,474.7L503.9,474.7z M480.5,483.2L465,476c-1.6-0.8-1.6-1.8,0-2.4l15.2-5.6
			c1.6-0.6,4.2-0.4,5.8,0.3l15.5,7.3c1.6,0.8,1.6,1.8,0,2.4l-15.2,5.6C484.7,484.1,482.1,484,480.5,483.2L480.5,483.2z M281.2,556
			l-15.5-7.3c-1.6-0.8-1.6-1.8,0-2.4l15.2-5.6c1.6-0.6,4.2-0.4,5.8,0.3l15.5,7.3c1.6,0.8,1.6,1.8,0,2.4l-15.2,5.6
			C285.4,556.9,282.8,556.8,281.2,556L281.2,556z M405.2,491.8l-13.7-6.4c-1.4-0.7-1.3-1.7,0.3-2.3l15.2-5.6
			c1.6-0.6,4.1-0.5,5.5,0.2l13.7,6.4c1.4,0.7,1.3,1.7-0.3,2.3l-15.2,5.6C409.1,492.5,406.6,492.5,405.2,491.8L405.2,491.8z
			 M428.6,483.3l-13.7-6.4c-1.4-0.7-1.3-1.7,0.3-2.3l15.2-5.6c1.6-0.6,4.1-0.5,5.5,0.2l13.7,6.4c1.4,0.7,1.3,1.7-0.3,2.3l-15.2,5.6
			C432.5,484,430,483.9,428.6,483.3L428.6,483.3z M288.3,534.5l-13.7-6.4c-1.4-0.7-1.3-1.7,0.3-2.3l15.2-5.6
			c1.6-0.6,4.1-0.5,5.5,0.2l13.7,6.4c1.4,0.7,1.3,1.7-0.3,2.3l-15.2,5.6C292.2,535.2,289.7,535.2,288.3,534.5L288.3,534.5z
			 M311.7,526l-13.7-6.4c-1.4-0.7-1.3-1.7,0.3-2.3l15.2-5.6c1.6-0.6,4.1-0.5,5.5,0.2l13.7,6.4c1.4,0.7,1.3,1.7-0.3,2.3l-15.2,5.6
			C315.6,526.7,313.1,526.6,311.7,526L311.7,526z M422.4,417l-5.8-2.7c-1.4-0.7-1.3-1.7,0.3-2.3l15.2-5.6c1.6-0.6,4.1-0.5,5.5,0.2
			l5.8,2.7c1.4,0.7,1.3,1.7-0.3,2.3l-15.2,5.6C426.3,417.8,423.8,417.7,422.4,417L422.4,417z M397.8,426l-5.8-2.7
			c-1.4-0.7-1.3-1.7,0.3-2.3l15.2-5.6c1.6-0.6,4.1-0.5,5.5,0.2l5.8,2.7c1.4,0.7,1.3,1.7-0.3,2.3l-15.2,5.6
			C401.7,426.7,399.2,426.7,397.8,426L397.8,426z M373.8,434.8l-5.8-2.7c-1.4-0.7-1.3-1.7,0.3-2.3l15.2-5.6c1.6-0.6,4.1-0.5,5.5,0.2
			l5.8,2.7c1.4,0.7,1.3,1.7-0.3,2.3l-15.2,5.6C377.6,435.5,375.2,435.4,373.8,434.8L373.8,434.8z M349.2,443.8l-5.8-2.7
			c-1.4-0.7-1.3-1.7,0.3-2.3l15.2-5.6c1.6-0.6,4.1-0.5,5.5,0.2l5.8,2.7c1.4,0.7,1.3,1.7-0.3,2.3l-15.2,5.6
			C353.1,444.5,350.6,444.4,349.2,443.8L349.2,443.8z M325.4,452.5l-5.8-2.7c-1.4-0.7-1.3-1.7,0.3-2.3l15.2-5.6
			c1.6-0.6,4.1-0.5,5.5,0.2l5.8,2.7c1.4,0.7,1.3,1.7-0.3,2.3l-15.2,5.6C329.3,453.2,326.8,453.1,325.4,452.5L325.4,452.5z
			 M300.8,461.5l-5.8-2.7c-1.4-0.7-1.3-1.7,0.3-2.3l15.2-5.6c1.6-0.6,4.1-0.5,5.5,0.2l5.8,2.7c1.4,0.7,1.3,1.7-0.3,2.3l-15.2,5.6
			C304.7,462.2,302.2,462.1,300.8,461.5z M276.5,470.3l-5.8-2.7c-1.4-0.7-1.3-1.7,0.3-2.3l15.2-5.6c1.6-0.6,4.1-0.5,5.5,0.2l5.8,2.7
			c1.4,0.7,1.3,1.7-0.3,2.3l-15.2,5.6C280.4,471,277.9,471,276.5,470.3L276.5,470.3z M252,479.3l-5.8-2.7c-1.4-0.7-1.3-1.7,0.3-2.3
			l15.2-5.6c1.6-0.6,4.1-0.5,5.5,0.2l5.8,2.7c1.4,0.7,1.3,1.7-0.3,2.3l-15.2,5.6C255.9,480,253.4,479.9,252,479.3z M227.9,488.1
			l-5.8-2.7c-1.4-0.7-1.3-1.7,0.3-2.3l15.2-5.6c1.6-0.6,4.1-0.5,5.5,0.2l5.8,2.7c1.4,0.7,1.3,1.7-0.3,2.3l-15.2,5.6
			C231.8,488.8,229.3,488.7,227.9,488.1L227.9,488.1z M203.4,497.1l-5.8-2.7c-1.4-0.7-1.3-1.7,0.3-2.3l15.2-5.6
			c1.6-0.6,4.1-0.5,5.5,0.2l5.8,2.7c1.4,0.7,1.3,1.7-0.3,2.3l-15.2,5.6C207.2,497.8,204.8,497.7,203.4,497.1L203.4,497.1z
			 M154.9,514.8l-5.8-2.7c-1.4-0.7-1.3-1.7,0.3-2.3l15.2-5.6c1.6-0.6,4.1-0.5,5.5,0.2l5.8,2.7c1.4,0.7,1.3,1.7-0.3,2.3l-15.2,5.6
			C158.8,515.5,156.3,515.4,154.9,514.8L154.9,514.8z M130.8,523.6l-5.8-2.7c-1.4-0.7-1.3-1.7,0.3-2.3l15.2-5.6
			c1.6-0.6,4.1-0.5,5.5,0.2l5.8,2.7c1.4,0.7,1.3,1.7-0.3,2.3l-15.2,5.6C134.7,524.3,132.2,524.2,130.8,523.6L130.8,523.6z
			 M106.2,532.6l-5.8-2.7c-1.4-0.7-1.3-1.7,0.3-2.3l15.2-5.6c1.6-0.6,4.1-0.5,5.5,0.2l5.8,2.7c1.4,0.7,1.3,1.7-0.3,2.3l-15.2,5.6
			C110.1,533.3,107.6,533.2,106.2,532.6L106.2,532.6z M451.9,440.4l-13.7-6.4c-1.4-0.7-1.3-1.7,0.3-2.3l26.7-9.8
			c1.6-0.6,4.1-0.5,5.5,0.2l13.7,6.4c1.4,0.7,1.3,1.7-0.3,2.3l-26.7,9.8C455.8,441.1,453.3,441,451.9,440.4L451.9,440.4z
			 M472.1,452.5c-1.6,0.6-4.1,0.5-5.5-0.2l-13.7-6.4c-1.4-0.7-1.3-1.7,0.3-2.3l32.7-11.9c1.6-0.6,4.1-0.5,5.5,0.2l13.7,6.4
			c1.4,0.7,1.3,1.7-0.3,2.3L472.1,452.5L472.1,452.5z M475.1,466.3l-13.7-6.4c-1.4-0.7-1.3-1.7,0.3-2.3l44.7-16.3
			c1.6-0.6,4.1-0.5,5.5,0.2l13.7,6.4c1.4,0.7,1.3,1.7-0.3,2.3l-44.7,16.3C479,467,476.5,466.9,475.1,466.3z M451.6,494.1l-16.1-7.6
			c-1.4-0.7-1.3-1.7,0.3-2.3l21-7.7c1.6-0.6,4.1-0.5,5.5,0.2l16.1,7.6c1.4,0.7,1.3,1.7-0.3,2.3l-21,7.7
			C455.5,494.8,453,494.7,451.6,494.1L451.6,494.1z M305.7,547.4l-16.1-7.6c-1.4-0.7-1.3-1.7,0.3-2.3l21-7.7
			c1.6-0.6,4.1-0.5,5.5,0.2l16.1,7.6c1.4,0.7,1.3,1.7-0.3,2.3l-21,7.7C309.6,548.1,307.1,548,305.7,547.4z M132.3,542.4
			c-1.6,0.6-4.1,0.5-5.4-0.2l-13.7-6.4c-1.4-0.7-1.3-1.7,0.3-2.3l27.4-10c1.6-0.6,4.1-0.5,5.5,0.2l13.7,6.4c1.4,0.7,1.3,1.7-0.3,2.3
			L132.3,542.4z M167.9,561.5l-13.7-6.4c-1.4-0.7-1.3-1.7,0.3-2.3l33-12.1c1.6-0.6,4.1-0.5,5.5,0.2l13.7,6.4
			c1.4,0.7,1.3,1.7-0.3,2.3l-33,12.1C171.8,562.2,169.3,562.1,167.9,561.5L167.9,561.5z M188.3,571l-13.7-6.4
			c-1.4-0.7-1.3-1.7,0.3-2.3l44.6-16.3c1.6-0.6,4.1-0.5,5.5,0.2l13.7,6.4c1.4,0.7,1.3,1.7-0.3,2.3l-44.6,16.3
			C192.2,571.8,189.7,571.7,188.3,571z M258.2,564.7l-5.5-2.6c-1.4-0.7-1.3-1.7,0.3-2.3l15.2-5.6c1.6-0.6,4.1-0.5,5.5,0.2l5.5,2.6
			c1.4,0.7,1.3,1.7-0.3,2.3l-15.2,5.6C262.1,565.5,259.6,565.4,258.2,564.7z M234.8,573.3l-16.1-7.6c-1.4-0.7-1.3-1.7,0.3-2.3
			l15.2-5.6c1.6-0.6,4.1-0.5,5.5,0.2l16.1,7.6c1.4,0.7,1.3,1.7-0.3,2.3l-15.2,5.6C238.6,574,236.2,574,234.8,573.3L234.8,573.3z
			 M334.7,536.8l-16.1-7.6c-1.4-0.7-1.3-1.7,0.3-2.3l108.8-39.8c1.6-0.6,4.1-0.5,5.5,0.2l16.1,7.6c1.4,0.7,1.3,1.7-0.3,2.3
			l-108.8,39.8C338.6,537.5,336.1,537.4,334.7,536.8L334.7,536.8z"/>
		<path class="st50" d="M112.6,222.3l258.1-89.2v235.3l-258.1,98.3V222.3z"/>
		
			<linearGradient id="SVGID_8_" gradientUnits="userSpaceOnUse" x1="127.2951" y1="719.9757" x2="127.7101" y2="719.0092" gradientTransform="matrix(-57.357 0 0 -121.39 7660.8696 87563.8828)">
			<stop  offset="0" style="stop-color:#48C7FF"/>
			<stop  offset="1" style="stop-color:#1F7DC2"/>
		</linearGradient>
		<path class="st51" d="M323.2,162.8l57.4-19.1V245l-57.4,20V162.8z"/>
		<path class="st50" d="M327.7,219.6l48.5-16.2v11.3l-48.5,16.3V219.6z M327.7,237.5l48.5-16.3v11.3l-48.5,16.4V237.5z M353,199
			c6.1-2.1,11-10.2,11-18.1c0-7.9-4.9-12.6-11-10.5c-6.1,2.1-11,10.2-11,18.1S346.9,201.1,353,199L353,199z"/>
		<path class="st45" d="M112.6,221.7l50.7-17.9V447l-50.7,19.7V221.7z"/>
		<path class="st52" d="M120.3,239l7.7-2.6v9.6l-7.7,2.6V239z M132.4,235.1l22.1-7.8v3.8l-22.1,7.8V235.1z M132.4,254.6l22.1-7.8
			v3.8l-22.1,7.9V254.6z M132.4,274l22.1-7.9v3.8l-22.1,7.9V274z M132.4,294.7l22.1-8v3.8l-22.1,8V294.7z M132.4,314.1l22.1-8v3.8
			l-22.1,8V314.1z M132.4,333.6l22.1-8.1v3.8l-22.1,8.1V333.6z M120.3,258.5l7.7-2.6v9.6l-7.7,2.7V258.5z M120.3,279.2l7.7-2.7v9.6
			l-7.7,2.7V279.2z M120.3,298.7l7.7-2.7v9.6l-7.7,2.7V298.7z M120.3,318.2l7.7-2.7v9.6l-7.7,2.7V318.2z M120.3,337.7l7.7-2.7v9.6
			l-7.7,2.7V337.7z"/>
		<g transform="matrix(-1 0 0 1 430.872 237.402)" class="st27">
			<g class="st53">
				<path id="f_3_" d="M166,65.8L47,23.6c-1.2-0.4-2.3,0.5-2.3,2.1v109.9c0,1.6,1,3.2,2.3,3.7l119,44.3c1.2,0.5,2.3-0.4,2.3-2.1
					V69.6C168.3,68,167.3,66.3,166,65.8L166,65.8z"/>
			</g>
			<g>
				<path id="f_2_" class="st15" d="M166,65.8L47,23.6c-1.2-0.4-2.3,0.5-2.3,2.1v109.9c0,1.6,1,3.2,2.3,3.7l119,44.3
					c1.2,0.5,2.3-0.4,2.3-2.1V69.6C168.3,68,167.3,66.3,166,65.8L166,65.8z"/>
			</g>
			<path class="st29" d="M165.8,66.4l-119-42.2c-0.8-0.3-1.5,0.3-1.5,1.5v109.9c0,1.3,0.9,2.8,1.9,3.1l119,44.3
				c0.8,0.3,1.4-0.3,1.4-1.5V69.6C167.7,68.2,166.8,66.8,165.8,66.4z"/>
		</g>
		<path class="st54" d="M281.3,377.7l92.7-34.3 M281.3,350.8l92.7-33.9 M281.3,325l92.7-33.5"/>
		
			<linearGradient id="SVGID_9_" gradientUnits="userSpaceOnUse" x1="126.9566" y1="719.7219" x2="126.9566" y2="718.7219" gradientTransform="matrix(-68.387 0 0 -79.759 9001.0156 57726.7969)">
			<stop  offset="0" style="stop-color:#5BD5F2"/>
			<stop  offset="1" style="stop-color:#2EAAE1"/>
		</linearGradient>
		<path class="st55" d="M284.6,371.1l8.8-3.2V399l-8.8,3.2V371.1z M300.1,325.7l8.8-3.2v71.2l-8.8,3.3V325.7z M314.4,348.4l8.8-3.2
			v43.1l-8.8,3.2L314.4,348.4z M329.9,360.1l8.8-3.3v25.4l-8.8,3.3V360.1z M344.2,343.7l8.8-3.2v36.4l-8.8,3.2L344.2,343.7z"/>
		<path class="st33" d="M341.6,322.9l15.1-5.4c0.4-0.1,0.7,0.2,0.7,0.7v12.1c0,0.5-0.3,1.1-0.7,1.2l-5.4,1.9l-2.2,2.7l-2.1-1.1
			l-5.4,2c-0.4,0.1-0.7-0.2-0.7-0.7v-12.1C340.9,323.5,341.2,323,341.6,322.9z"/>
		
			<linearGradient id="SVGID_10_" gradientUnits="userSpaceOnUse" x1="143.539" y1="714.2157" x2="143.539" y2="713.2157" gradientTransform="matrix(-8.824 0 0 -15.026 1629.5421 11091.623)">
			<stop  offset="0" style="stop-color:#5BD5F2"/>
			<stop  offset="1" style="stop-color:#2EAAE1"/>
		</linearGradient>
		<path class="st56" d="M358.5,363l8.8-3.2v11.9l-8.8,3.2L358.5,363z"/>
		<path class="st57" d="M280.2,305.6l22.1-7.9v4.7l-22.1,7.9V305.6z"/>
		<path class="st58" d="M281.3,403.5l92.7-34.6"/>
		<path class="st57" d="M315.5,292.4l22.1-7.8v4.7l-22.1,7.9V292.4z M351.9,280.4l22.1-7.7v4.7l-22.1,7.8V280.4z"/>
		<path class="st30" d="M250.4,186.9l14.3-5.2v3.1l-14.3,5.2V186.9z M290.2,175.5l14.3-5.1v3l-14.3,5.1V175.5z"/>
		<path class="st59" d="M223.4,259.6c1.5-0.6,2.8-2.7,2.8-4.8s-1.2-3.3-2.8-2.7s-2.8,2.7-2.8,4.8C220.7,259,221.9,260.2,223.4,259.6
			z"/>
		<path class="st60" d="M222.9,261.8c2.4-0.9,4.4-4.3,4.4-7.6c0-3.3-2-5.2-4.4-4.3c-2.4,0.9-4.4,4.3-4.4,7.6
			C218.5,260.8,220.4,262.7,222.9,261.8L222.9,261.8z"/>
		<path class="st61" d="M223.4,257.5c0.9-0.3,1.7-1.6,1.7-2.8s-0.7-1.9-1.7-1.6c-0.9,0.3-1.7,1.6-1.7,2.8
			C221.8,257.1,222.5,257.8,223.4,257.5z"/>
		<g class="st19">
			<g transform="matrix(-1 0 0 1 356.297 134.292)" class="st62">
				<g class="st28">
					<path id="i_3_" d="M202.9,71.6L46.3,23.2c-1.2-0.4-2.3,0.5-2.3,2.1v112c0,1.6,1,3.3,2.3,3.7l156.5,56.9
						c1.2,0.5,2.3-0.5,2.3-2.1V75.4C205.1,73.7,204.1,72,202.9,71.6L202.9,71.6z"/>
				</g>
				<g>
					<path id="i_2_" class="st15" d="M202.9,71.6L46.3,23.2c-1.2-0.4-2.3,0.5-2.3,2.1v112c0,1.6,1,3.3,2.3,3.7l156.5,56.9
						c1.2,0.5,2.3-0.5,2.3-2.1V75.4C205.1,73.7,204.1,72,202.9,71.6L202.9,71.6z"/>
				</g>
				<path class="st29" d="M202.7,72.2L46.1,23.7c-0.8-0.3-1.5,0.3-1.5,1.6v112c0,1.4,0.9,2.8,1.9,3.1l156.5,56.9
					c0.8,0.3,1.4-0.3,1.4-1.6V75.4C204.5,74,203.7,72.5,202.7,72.2z"/>
			</g>
			<path class="st63" d="M171,212.4l14.3-5.3v3.1l-14.3,5.3L171,212.4z M210.7,198.4l14.3-5.3v3.1l-14.3,5.3V198.4z"/>
			<path class="st64" d="M161.1,280.1l141.2-50.6 M161.1,264.1l141.2-50.2 M161.1,249.3l141.2-49.9 M161.1,296l141.2-50.9
				 M161.1,313.2l141.2-51.2"/>
			
				<linearGradient id="SVGID_11_" gradientUnits="userSpaceOnUse" x1="126.1452" y1="719.1767" x2="125.1452" y2="719.1767" gradientTransform="matrix(-146.702 0 0 -77.0333 18664.6445 55649.7695)">
				<stop  offset="0" style="stop-color:#5BD4F2;stop-opacity:0"/>
				<stop  offset="0.2015" style="stop-color:#78DC6C"/>
				<stop  offset="0.5179" style="stop-color:#46C0E9"/>
				<stop  offset="0.7991" style="stop-color:#32ADE2"/>
				<stop  offset="1" style="stop-color:#2EA9E0;stop-opacity:0"/>
			</linearGradient>
			<path class="st65" d="M158.9,285.4c6.4-4.3,11.9-10.1,16.4-17.3c6.8-10.8,8.5-15.7,16.3-10.9c7.8,4.8,9.9-1.9,10.8,6.3
				c1,8.3,7.1,9.5,7.6,17.1c0.5,7.5,6.8,12.6,7.6-2.8c0.7-15.3,3.5-21.1,8.9-25.2c5.4-4.1,4,2.9,9,0c5-2.9,7.3-19.2,12.8-11.9
				c5.5,7.3,6.6,0,13.3-1.1c6.7-1.1,12.3-5.7,15.8-17.8c3.5-12.1,6.1-15.2,9-4.6c2.9,10.6,5.7,25.2,9,19.3
				c3.3-5.9,4.3-11.5,10.1-0.7"/>
			<path class="st66" d="M165,218.5c0.9-0.4,1.7-2,1.7-3.5s-0.7-2.4-1.7-2c-0.9,0.4-1.7,2-1.7,3.5S164,218.9,165,218.5L165,218.5z
				 M205.8,204.6c0.9-0.4,1.7-2,1.7-3.5c0-1.5-0.7-2.4-1.7-2c-0.9,0.4-1.7,2-1.7,3.5C204.1,204.1,204.9,205,205.8,204.6L205.8,204.6
				z"/>
		</g>
		<path class="st33" d="M245.5,193c0.9-0.4,1.7-1.9,1.7-3.4s-0.7-2.4-1.7-1.9c-0.9,0.4-1.7,1.9-1.7,3.4
			C243.8,192.5,244.6,193.4,245.5,193L245.5,193z M285.2,181.6c0.9-0.4,1.7-1.9,1.7-3.4c0-1.5-0.7-2.4-1.7-1.9
			c-0.9,0.4-1.7,1.9-1.7,3.4S284.3,182,285.2,181.6L285.2,181.6z"/>
		<g transform="matrix(-1 0 0 1 430.872 109.743)" class="st27">
			<g class="st67">
				<path id="l_2_" d="M255.4,226.9l-57.4-21.1v116.1l57.4,22V226.9z"/>
			</g>
			<g>
				<path id="l_1_" class="st15" d="M255.4,226.9l-57.4-21.1v116.1l57.4,22V226.9z"/>
			</g>
			<path class="st29" d="M254.8,227.3l-56.2-20.6v114.8l56.2,21.6V227.3z"/>
		</g>
		<path class="st33" d="M181,347.7l22.1-8.2v4.8l-22.1,8.2V347.7z"/>
		<path class="st68" d="M199.2,424v3.8l31.4-11.6v-3.8L199.2,424z M203.8,414.7v3.8l26.8-9.8v-3.8L203.8,414.7L203.8,414.7z
			 M197.7,409.2v3.8l32.9-12.1v-3.8L197.7,409.2z M193.1,403.2v3.8l37.5-13.7v-3.8L193.1,403.2L193.1,403.2z M197.7,393.9v3.8
			l32.9-12v-3.8L197.7,393.9L197.7,393.9z M200,385.4v3.8l30.6-11.1v-3.8L200,385.4z M193.1,380.2v3.8l37.5-13.6v-3.8L193.1,380.2
			L193.1,380.2z M196.2,371.4v3.8l34.4-12.4V359L196.2,371.4z M205.3,360.4v3.8l25.3-9.1v-3.8L205.3,360.4L205.3,360.4z
			 M201.5,354.1v3.8l29.1-10.4v-3.8L201.5,354.1L201.5,354.1z"/>
		<path class="st69" d="M210.4,419v3.8l-30.5,11.6v-3.8L210.4,419L210.4,419z M205.9,413v3.8l-26,9.9v-3.8L205.9,413z M211.8,403.1
			v3.8l-32,12.1v-3.8L211.8,403.1L211.8,403.1z M200.7,399.7v3.8l-20.8,7.9v-3.8L200.7,399.7L200.7,399.7z M196.2,393.7v3.8
			l-16.4,6.2v-3.8L196.2,393.7z M194,386.8v3.8l-14.1,5.3v-3.8L194,386.8z M200.7,376.7v3.8l-20.8,7.8v-3.8L200.7,376.7z
			 M197.7,370.1v3.8l-17.9,6.7v-3.8L197.7,370.1z M204.4,360v3.8l-24.5,9.1v-3.8L204.4,360L204.4,360z M208.1,351v3.8l-28.3,10.5
			v-3.8L208.1,351z"/>
	</g>
	<g class="st26">
		<path class="st44" d="M800.3,407.2c3.2,1.1,3.3,3.3,0.3,4.8l-156.2,58.3c-3,1.5-8.1,1.8-11.2,0.7l-92-44.4
			c-3.2-1.1-3.3-3.3-0.3-4.8l154-58.9c3-1.5,8-1.9,11.2-0.8L800.3,407.2L800.3,407.2z"/>
		<path class="st45" d="M801.6,388.1c1.7,0.6,1.2,5.4,1.2,6.3c0,0.8-0.8,1.7-2.2,2.4l-156.2,58.3c-3,1.5-8.1,1.8-11.2,0.7l-92-44.4
			c-1.7-0.6-2.6-1.5-2.5-2.5c0.1-0.8-0.2-5.9,1.2-6.6l154.9-54.6c3-1.5,8-1.9,11.2-0.8L801.6,388.1z"/>
		<path class="st50" d="M800.3,387.3c3.2,1.1,3.3,3.3,0.3,4.8l-156.2,58.3c-3,1.5-8.1,1.8-11.2,0.7l-92-44.4
			c-3.2-1.1-3.3-3.3-0.3-4.8l154-58.9c3-1.5,8-1.9,11.2-0.8L800.3,387.3L800.3,387.3z"/>
		<path class="st70" d="M729.3,368.8L630.4,407l-23.8-11.8l98.9-37L729.3,368.8z"/>
		<path class="st45" d="M729.3,359.3l-98.6,37.8l-24.2-11.5v-3.7l23.8,11.9l98.9-38.2V359.3z"/>
		<path class="st71" d="M630.8,397.1l-24.2-11.5v-3.7l23.8,11.9L630.8,397.1z"/>
		<path class="st50" d="M729.3,355.7l-98.9,38.2L606.6,382l98.9-37L729.3,355.7z"/>
		
			<linearGradient id="SVGID_12_" gradientUnits="userSpaceOnUse" x1="120.6285" y1="718.1736" x2="120.7632" y2="716.7656" gradientTransform="matrix(44.097 0 0 -32.797 -4620.0132 23877.3164)">
			<stop  offset="0" style="stop-color:#48C7FF"/>
			<stop  offset="1" style="stop-color:#1F7DC2"/>
		</linearGradient>
		<path class="st72" d="M680,355.3l19.9,10.1l24.2-8.9v-22.7l-23.8,9.4L680,332.6V355.3z"/>
		
			<linearGradient id="SVGID_13_" gradientUnits="userSpaceOnUse" x1="117.4197" y1="717.5934" x2="117.8348" y2="716.627" gradientTransform="matrix(24.19 0 0 -31.644 -2131.6394 23047.1582)">
			<stop  offset="0" style="stop-color:#48C7FF"/>
			<stop  offset="1" style="stop-color:#1F7DC2"/>
		</linearGradient>
		<path class="st73" d="M699.9,365.4l24.2-8.9v-22.7l-23.8,9.4L699.9,365.4z"/>
		<path class="st74" d="M680,332.6l20.3,10.5l23.8-9.3l-20.3-9.4L680,332.6z"/>
		
			<linearGradient id="SVGID_14_" gradientUnits="userSpaceOnUse" x1="120.6243" y1="719.1707" x2="120.759" y2="717.7627" gradientTransform="matrix(44.096 0 0 -48.297 -4649.6831 35048.4258)">
			<stop  offset="0" style="stop-color:#48C7FF"/>
			<stop  offset="1" style="stop-color:#1F7DC2"/>
		</linearGradient>
		<path class="st75" d="M650.2,366.4l19.9,10.1l24.2-8.9v-38.2l-23.8,9.4l-20.3-10.5V366.4z"/>
		
			<linearGradient id="SVGID_15_" gradientUnits="userSpaceOnUse" x1="117.4197" y1="718.6527" x2="117.8348" y2="717.6862" gradientTransform="matrix(24.19 0 0 -47.146 -2161.4329 34219.707)">
			<stop  offset="0" style="stop-color:#48C7FF"/>
			<stop  offset="1" style="stop-color:#1F7DC2"/>
		</linearGradient>
		<path class="st76" d="M670.1,376.5l24.2-8.9v-38.2l-23.8,9.4L670.1,376.5z"/>
		<path class="st74" d="M650.2,328.2l20.3,10.5l23.8-9.3l-20.3-9.4L650.2,328.2z"/>
		<path class="st77" d="M620.4,378.8l19.9,8.8l24.2-8.9v-64.5l-23.8,9.4l-20.3-10.5V378.8z"/>
		
			<linearGradient id="SVGID_16_" gradientUnits="userSpaceOnUse" x1="118.2771" y1="719.7124" x2="117.141" y2="718.7512" gradientTransform="matrix(24.19 0 0 -73.378 -2191.2283 53117.8594)">
			<stop  offset="0" style="stop-color:#FFFFFF"/>
			<stop  offset="1" style="stop-color:#68D75A;stop-opacity:0"/>
		</linearGradient>
		<path class="st78" d="M640.3,387.6l24.2-8.9v-64.5l-23.8,9.4L640.3,387.6z"/>
		<path class="st79" d="M620.4,313.1l20.3,10.5l23.8-9.3l-20.3-9.4L620.4,313.1z"/>
		<g class="st19">
			<path class="st80" d="M762.7,385.5l-98.9,38.2L640,411.8l98.9-37L762.7,385.5z"/>
			<path class="st10" d="M762.7,376l-98.6,37.8L640,402.3v-3.7l23.8,11.9l98.9-38.2V376z"/>
			<path class="st81" d="M664.1,413.8L640,402.3v-3.7l23.8,11.9L664.1,413.8z"/>
			<path class="st15" d="M762.7,372.4l-98.9,38.2L640,398.7l98.9-37L762.7,372.4z"/>
			
				<linearGradient id="SVGID_17_" gradientUnits="userSpaceOnUse" x1="120.6087" y1="714.2853" x2="120.7433" y2="712.8774" gradientTransform="matrix(43.736 0 0 -14.568 -4540.8066 10768.6807)">
				<stop  offset="0" style="stop-color:#48C7FF"/>
				<stop  offset="1" style="stop-color:#1F7DC2"/>
			</linearGradient>
			<path class="st82" d="M714.5,372.5l20.2,9.1l23.5-9.4v-3.5l-23.5,9.4l-20.2-11V372.5z"/>
			
				<linearGradient id="SVGID_18_" gradientUnits="userSpaceOnUse" x1="117.231" y1="712.951" x2="117.6461" y2="711.9845" gradientTransform="matrix(23.55 0 0 -12.963 -2017.5564 9613.0811)">
				<stop  offset="0" style="stop-color:#48C7FF"/>
				<stop  offset="1" style="stop-color:#1F7DC2"/>
			</linearGradient>
			<path class="st83" d="M734.6,381.7l23.5-9.4v-3.5l-23.5,9.4V381.7z"/>
			<path class="st84" d="M713.9,367.7l20.8,10.4l23.5-9.4l-20.5-9.1L713.9,367.7z"/>
			
				<linearGradient id="SVGID_19_" gradientUnits="userSpaceOnUse" x1="120.6293" y1="717.9893" x2="120.764" y2="716.5812" gradientTransform="matrix(44.097 0 0 -30.96 -4615.3652 22583.0273)">
				<stop  offset="0" style="stop-color:#48C7FF"/>
				<stop  offset="1" style="stop-color:#1F7DC2"/>
			</linearGradient>
			<path class="st85" d="M684.7,383.6l19.9,10.1l24.2-8.9V364l-24.1,8.5l-20-9.7L684.7,383.6z"/>
			
				<linearGradient id="SVGID_20_" gradientUnits="userSpaceOnUse" x1="117.4197" y1="717.3923" x2="117.8348" y2="716.4258" gradientTransform="matrix(24.19 0 0 -29.784 -2126.9897 21736.3047)">
				<stop  offset="0" style="stop-color:#48C7FF"/>
				<stop  offset="1" style="stop-color:#1F7DC2"/>
			</linearGradient>
			<path class="st86" d="M704.6,393.8l24.2-8.9V364l-24.1,8.5L704.6,393.8z"/>
			<path class="st84" d="M684.7,362.8l20,9.7l24.1-8.5l-20.2-9.7L684.7,362.8z"/>
			<path class="st87" d="M654.9,396.1l19.9,8.8L699,396v-47.2l-23.5,9.2l-19.9-10.6L654.9,396.1z"/>
			
				<linearGradient id="SVGID_21_" gradientUnits="userSpaceOnUse" x1="118.3803" y1="719.2894" x2="117.2442" y2="718.3281" gradientTransform="matrix(24.555 0 0 -56.248 -2202.0454 40801.5)">
				<stop  offset="0" style="stop-color:#FFFFFF"/>
				<stop  offset="1" style="stop-color:#68D75A;stop-opacity:0"/>
			</linearGradient>
			<path class="st88" d="M674.8,404.9L699,396l0.4-47.3l-23.8,9.3L674.8,404.9z"/>
			<path class="st89" d="M655.6,347.3l19.9,10.6l23.8-9.3l-21.2-9L655.6,347.3z"/>
		</g>
		<g class="st19">
			<path class="st80" d="M623.3,409.4l-20.3,8.3l-23.8-11.8l20.3-7.2L623.3,409.4z"/>
			
				<linearGradient id="SVGID_22_" gradientUnits="userSpaceOnUse" x1="120.6399" y1="714.455" x2="120.7746" y2="713.047" gradientTransform="matrix(44.096 0 0 -14.93 -4720.731 11055.25)">
				<stop  offset="0" style="stop-color:#48C7FF"/>
				<stop  offset="1" style="stop-color:#1F7DC2"/>
			</linearGradient>
			<path class="st90" d="M623.3,399.8l-20.3,7.8l-23.8-11.3v-3.7l23.8,11.9l20.3-8.3V399.8z"/>
			
				<linearGradient id="SVGID_23_" gradientUnits="userSpaceOnUse" x1="117.3751" y1="714.4525" x2="117.5098" y2="713.0445" gradientTransform="matrix(23.836 0 0 -14.93 -2208.491 11055.25)">
				<stop  offset="0" style="stop-color:#48C7FF"/>
				<stop  offset="1" style="stop-color:#1F7DC2"/>
			</linearGradient>
			<path class="st91" d="M603,407.6l-23.8-11.3v-3.7l23.8,11.9V407.6z"/>
			<path class="st84" d="M623.3,396.2l-20.3,8.3l-23.8-11.8l20.3-7.2L623.3,396.2z"/>
		</g>
		<g class="st19">
			<path class="st80" d="M656.6,426l-20.3,8.3l-23.8-11.8l20.3-7.2L656.6,426z"/>
			
				<linearGradient id="SVGID_24_" gradientUnits="userSpaceOnUse" x1="120.6396" y1="714.3646" x2="120.7743" y2="712.9566" gradientTransform="matrix(44.096 0 0 -14.735 -4687.3608 10931.3496)">
				<stop  offset="0" style="stop-color:#48C7FF"/>
				<stop  offset="1" style="stop-color:#1F7DC2"/>
			</linearGradient>
			<path class="st92" d="M656.6,416.5l-20.3,7.6L612.5,413v-3.7l23.8,11.9l20.3-8.3V416.5z"/>
			
				<linearGradient id="SVGID_25_" gradientUnits="userSpaceOnUse" x1="117.3745" y1="714.3625" x2="117.5091" y2="712.9545" gradientTransform="matrix(23.836 0 0 -14.736 -2175.1211 10932.0703)">
				<stop  offset="0" style="stop-color:#48C7FF"/>
				<stop  offset="1" style="stop-color:#1F7DC2"/>
			</linearGradient>
			<path class="st93" d="M636.4,424.1L612.5,413v-3.7l23.8,11.9V424.1z"/>
			<path class="st84" d="M656.6,412.9l-20.3,8.3l-23.8-11.8l20.3-7.2L656.6,412.9z"/>
		</g>
	</g>
	<g>
		<path class="st94" d="M540.5,241.9c20.7-7.5,37.5-29.6,37.5-49.3c0-19.7-16.8-29.6-37.5-22.1C519.8,178,503,200,503,219.8
			c0,7.5,2.4,13.6,6.6,17.9c-0.8,4.9-1.9,9.4-3.4,13.7c-0.5,1.4-0.6,2.2-0.1,2.5c0.2,0.1,2.9,2.5,5,4c1,0.8,6.9-8.5,12.3-13.7
			C528.5,244.8,534.3,244.1,540.5,241.9L540.5,241.9z"/>
		<path class="st95" d="M545.5,245.8c20.7-7.5,37.5-29.6,37.5-49.3s-16.8-29.6-37.5-22.1S508,204,508,223.7c0,7.5,2.4,13.6,6.6,17.9
			c-0.8,4.9-1.9,9.4-3.4,13.7c-0.9,2.3-0.4,3.1,1.5,2.4c2.8-1,10.2-4.4,15.6-9.6C533.5,248.8,539.3,248.1,545.5,245.8L545.5,245.8z"
			/>
		
			<linearGradient id="SVGID_26_" gradientUnits="userSpaceOnUse" x1="125.5484" y1="719.6687" x2="126.7021" y2="719.3911" gradientTransform="matrix(-97 0 0 -101.9993 12811.9941 73556.4688)">
			<stop  offset="0" style="stop-color:#48C7FF"/>
			<stop  offset="1" style="stop-color:#0E71B9"/>
		</linearGradient>
		<path class="st96" d="M566.9,211c-7.4,2.7-8.9,8.5-15.1,7.9c-6.7-0.6-18.1-7.8-22.6-11.7c-6.4-5.4-10.2-13.8-10.2-24.3
			c0-25.1,21.5-53.2,47.9-62.7c14.4-5.2,27.4-3.8,36.2,2.6c4.2,3.1,10.3,6.1,12.4,11.3c1.5,3.9-0.6,9.4-0.6,14.3
			c0,9.6-3.1,19.6-8.4,28.8c1,5.4,2.5,10.2,4.4,14.3c1.2,2.1,0.5,3.6-2,4.5c-3.6,1.3-13.1,3.9-19.9,2.1
			C582.3,203.7,574.9,208.2,566.9,211z"/>
		
			<linearGradient id="SVGID_27_" gradientUnits="userSpaceOnUse" x1="126.0647" y1="719.7425" x2="126.4798" y2="718.7761" gradientTransform="matrix(-96 0 0 -97.0002 12694 69957.1172)">
			<stop  offset="0" style="stop-color:#48C7FF"/>
			<stop  offset="1" style="stop-color:#1F7DC2"/>
		</linearGradient>
		<path class="st97" d="M574,215.8c-26.5,9.5-48-3.1-48-28.1s21.5-53,48-62.6s48,3.1,48,28.1c0,9.5-3.1,19.5-8.5,28.7
			c1,5.4,2.5,10.2,4.4,14.3c1.2,2.1,0.5,3.6-2,4.5c-3.6,1.3-13.1,3.8-19.9,2.1C589.4,208.4,581.9,212.9,574,215.8z"/>
		<path class="st98" d="M589.7,170c2.9-1.1,5.3-4.6,5.3-7.8c0-3.2-2.4-5-5.3-3.9s-5.3,4.6-5.3,7.8
			C584.4,169.3,586.8,171.1,589.7,170z M573.9,175.8c2.9-1.1,5.3-4.6,5.3-7.8c0-3.2-2.4-5-5.3-3.9s-5.3,4.6-5.3,7.8
			C568.7,175.2,571,176.9,573.9,175.8z M558.3,181.6c2.9-1.1,5.3-4.6,5.3-7.8c0-3.2-2.4-5-5.3-3.9s-5.3,4.6-5.3,7.8
			C553,180.9,555.4,182.7,558.3,181.6z"/>
	</g>
	<g class="st26">
		<g class="st99">
			<path class="st10" d="M136.7,448.3l-173.8,60.6c-2.5,0.9-5.2-0.4-6.1-3c-0.2-0.5-0.3-1-0.3-1.6v-160c0-3.1,2-5.9,5-6.8L135.2,281
				c2.5-0.8,5.2,0.6,6,3.1c0.2,0.5,0.2,1,0.2,1.5v155.9C141.5,444.6,139.5,447.3,136.7,448.3L136.7,448.3z"/>
			<path class="st15" d="M141.1,449.9l-175.3,60.7c-2.5,0.9-5.2-0.5-6.1-3c-0.2-0.5-0.3-1-0.3-1.6V346c0-3.1,2-5.9,5-6.9l176.7-56.5
				c2.5-0.8,5.2,0.6,6,3.1c0.2,0.5,0.2,1,0.2,1.5L146,443.2C146,446.2,144,448.9,141.1,449.9L141.1,449.9z"/>
		</g>
		
			<linearGradient id="SVGID_28_" gradientUnits="userSpaceOnUse" x1="123.3471" y1="719.5031" x2="123.7622" y2="718.5367" gradientTransform="matrix(165.9245 0 0 -77.8414 -20436.4785 56319.4063)">
			<stop  offset="0" style="stop-color:#48C7FF"/>
			<stop  offset="1" style="stop-color:#1F7DC2"/>
		</linearGradient>
		<path class="st100" d="M135.7,321.7l0.3-20.3c0-2-1.6-3.6-3.5-3.7c-0.4,0-0.8,0.1-1.2,0.2l-158.5,50.8c-1.5,0.5-2.5,1.8-2.5,3.4
			l-0.2,23.5C-29.8,375.6,135.7,321.7,135.7,321.7z"/>
		<path class="st50" d="M-13.1,360.7c2.5-0.9,4.6-3.8,4.6-6.6c0-2.8-2-4.4-4.6-3.5c-2.5,0.9-4.6,3.8-4.6,6.6
			C-17.7,360-15.6,361.6-13.1,360.7L-13.1,360.7z"/>
		<path class="st101" d="M-14.6,454.9l10.4-9.8c4.4-4.2,11.5-4,15.6,0.5c0.4,0.5,0.8,1,1.2,1.5c2.6,4,8,5.1,12,2.5
			c1-0.7,1.8-1.5,2.5-2.5l0.5-0.8c3.5-5.4,10.7-6.9,16.1-3.4c0.2,0.2,0.5,0.3,0.7,0.5c6.9,5.3,16.1,6.3,24,2.8
			c2.6-1.2,4.9-2.4,7-3.8c8.1-5.2,22.6-13.2,28.5-6.6c3.9,4.4,8.9-2.7,14.8-21.3"/>
		
			<linearGradient id="SVGID_29_" gradientUnits="userSpaceOnUse" x1="121.7359" y1="718.9554" x2="123.0742" y2="717.908" gradientTransform="matrix(62.479 0 0 -64.297 -7517.8604 46603.5234)">
			<stop  offset="0" style="stop-color:#48C7FF"/>
			<stop  offset="1" style="stop-color:#FFFFFF;stop-opacity:0"/>
		</linearGradient>
		<path class="st102" d="M61.5,374.4l16.8-5.7l0,37.2l-16.8,5.7L61.5,374.4z M84.4,353.1l16.8-5.7l0,50.7l-16.8,5.7L84.4,353.1z
			 M107.2,355.4l16.8-5.7l0,40.6l-16.8,5.7L107.2,355.4z"/>
		
			<linearGradient id="SVGID_30_" gradientUnits="userSpaceOnUse" x1="123.2144" y1="719.4449" x2="123.2551" y2="719.0023" gradientTransform="matrix(133.829 0 0 -73.6434 -16441.416 53409.0156)">
			<stop  offset="0" style="stop-color:#68D75A"/>
			<stop  offset="1" style="stop-color:#EBF3FC;stop-opacity:0"/>
		</linearGradient>
		<path class="st103" d="M-14.6,454.9l10.4-9.8c4.4-4.2,11.4-4,15.6,0.4c0.5,0.5,0.9,1,1.2,1.5c2.6,4,8,5.1,12,2.5
			c1-0.7,1.9-1.5,2.5-2.5l0.5-0.8c3.5-5.4,10.7-6.9,16.1-3.4c0.2,0.2,0.5,0.3,0.7,0.5c6.9,5.3,16.1,6.3,24,2.8
			c2.6-1.2,4.9-2.4,7-3.8c8.1-5.2,22.6-13.2,28.5-6.6c5.9,6.6,15.4-23.1,15.4-21.7v27.7l-133.8,45.9L-14.6,454.9L-14.6,454.9z"/>
		<path class="st104" d="M-22.2,491.1l150.8-51.7"/>
		<path class="st105" d="M-22.2,382.9l64-21.9l0,20.3l-64,21.9L-22.2,382.9z M-22.2,408.2l64-21.9l0,32.1l-64,21.9L-22.2,408.2z"/>
	</g>
</g>
</svg>
